<svg width="64" height="16" viewBox="0 0 64 16" fill="none" xmlns="http://www.w3.org/2000/svg">
<path d="M20 6.93486C20 7.58979 20 8.24473 20 8.89966C19.9896 8.97243 19.9689 9.03481 19.9689 9.10758C19.9379 10.3135 19.8032 11.4986 19.565 12.6837C19.4511 13.2451 19.2854 13.7857 18.9436 14.2535C18.3947 15.0124 17.5972 15.3451 16.7065 15.4802C15.9401 15.5946 15.153 15.6569 14.3762 15.7297C12.5948 15.896 10.803 16 9.0113 16C7.60276 15.9896 6.20457 15.9168 4.80639 15.7297C4.23676 15.6465 3.68784 15.5218 3.12857 15.3763C1.99966 15.0852 1.17111 14.4718 0.653259 13.4322C0.218268 12.5694 0.104342 11.6338 0.0732714 10.6981C0.0318437 8.76452 0.0214868 6.84129 0.000772929 4.92846C-0.009584 4.19036 0.0836284 3.45226 0.311481 2.74534C0.663616 1.66418 1.33682 0.905286 2.43465 0.541433C3.09749 0.323121 3.77069 0.271142 4.45425 0.260746C5.65565 0.229559 6.85706 0.208767 8.0481 0.167184C9.73628 0.115205 11.4348 0.0216425 13.123 0.000850908C14.314 -0.0095449 15.5051 0.0736216 16.6754 0.343913C18.1875 0.69737 19.1818 1.58101 19.5754 3.11959C19.7929 3.98245 19.8446 4.85569 19.9171 5.73934C19.9482 6.13438 19.9689 6.52942 20 6.93486ZM10.047 14.8149C10.1506 14.6693 10.2645 14.5238 10.3473 14.3679C10.5338 14.004 10.7098 13.6298 10.8963 13.2659C10.948 13.1619 11.0516 13.0476 11.1552 13.0268C11.383 12.9852 11.6316 12.9644 11.8698 12.9956C12.7812 13.0996 13.6926 13.1827 14.6144 13.006C15.8262 12.7773 16.5615 12.0184 16.7686 10.7917C16.9654 9.67935 17.1001 8.5566 17.1311 7.42346C17.1518 6.60219 17.1311 5.78092 17.1104 4.95965C17.1001 4.64778 16.9758 4.36709 16.779 4.11759C16.2611 3.47305 15.5879 3.0988 14.7698 3.04682C13.5166 2.95326 12.253 2.90128 10.9895 2.8493C9.94342 2.80772 8.90773 2.78693 7.86168 2.74534C7.02277 2.71416 6.18386 2.64139 5.34495 2.77653C4.2989 2.95326 3.53248 3.50424 3.14928 4.52303C2.93178 5.10519 2.90071 5.71855 2.89036 6.3319C2.88 7.20515 2.90071 8.068 2.91107 8.94125C2.92143 9.63777 2.97321 10.3239 3.19071 10.9892C3.45999 11.8313 3.97783 12.4446 4.86853 12.6526C5.32423 12.7565 5.79029 12.8085 6.25636 12.8501C6.95027 12.9124 7.64418 12.954 8.3381 13.006C8.47274 13.0164 8.56595 13.0684 8.61774 13.2035C8.64881 13.2763 8.70059 13.3491 8.75238 13.401C8.8663 13.5258 9.0113 13.6298 9.11487 13.7545C9.43593 14.0976 9.72593 14.4406 10.047 14.8149Z" fill="black"/>
<path d="M26 14H28.9962V2H26V14Z" fill="black"/>
<path d="M34.1636 7.36752V4.35897H35.7931C36.9846 4.35897 37.4927 4.94017 37.4927 5.86325C37.4927 6.78632 36.9846 7.36752 35.7931 7.36752H34.1636ZM40.5415 5.86325C40.5415 3.65812 39.0346 2 36.0209 2H31.1675V14H34.1636V9.69231H36.0209C39.1573 9.69231 40.5415 7.84615 40.5415 5.86325Z" fill="black"/>
<path d="M41.4355 4.34188H44.6945V14H47.6906V4.34188H50.9496V2H41.4355V4.34188Z" fill="black"/>
<path d="M57.7624 11.0598L54.7136 2H51.5247L55.8876 14H59.6372L64 2H60.8286L57.7624 11.0598Z" fill="black"/>
</svg>
