<svg width="193" height="60" viewBox="0 0 193 60" fill="none" xmlns="http://www.w3.org/2000/svg">
<path d="M74.6909 26.0057C74.6909 28.4617 74.6909 30.9177 74.6909 33.3738C74.6522 33.6466 74.5749 33.8806 74.5749 34.1534C74.4588 38.6756 73.956 43.1198 73.0664 47.564C72.641 49.6692 72.0221 51.6964 70.7457 53.4506C68.6958 56.2965 65.7175 57.544 62.3912 58.0508C59.529 58.4796 56.5894 58.7135 53.6885 58.9864C47.0358 59.6102 40.3445 60 33.6531 60C28.3928 59.961 23.1713 59.6881 17.9497 58.9864C15.8224 58.6745 13.7724 58.2067 11.6838 57.661C7.46782 56.5694 4.37355 54.2693 2.43963 50.3709C0.815133 47.1352 0.389671 43.6266 0.273635 40.118C0.118922 32.867 0.0802434 25.6549 0.00288654 18.4818C-0.0357919 15.7139 0.312314 12.946 1.16324 10.2951C2.47831 6.24071 4.9924 3.39486 9.09232 2.03041C11.5677 1.21174 14.0818 1.01682 16.6346 0.977834C21.1213 0.860882 25.608 0.782913 30.056 0.626976C36.3606 0.432055 42.7039 0.0811961 49.0084 0.00322752C53.4565 -0.0357567 57.9045 0.276118 62.2751 1.28971C67.9222 2.61517 71.6353 5.92883 73.1051 11.6985C73.9174 14.9342 74.1107 18.2089 74.3815 21.5225C74.4975 23.0039 74.5749 24.4853 74.6909 26.0057ZM37.521 55.5558C37.9077 55.01 38.3332 54.4642 38.6426 53.8795C39.3388 52.515 39.9964 51.1116 40.6926 49.7471C40.886 49.3573 41.2728 48.9285 41.6595 48.8505C42.5105 48.6946 43.4388 48.6166 44.3284 48.7336C47.7321 49.1234 51.1358 49.4353 54.5781 48.7725C59.1035 47.9149 61.8497 45.069 62.6232 40.4689C63.3581 36.2976 63.861 32.0873 63.977 27.838C64.0543 24.7582 63.977 21.6785 63.8996 18.5987C63.861 17.4292 63.3968 16.3766 62.6619 15.441C60.728 13.024 58.2139 11.6205 55.1583 11.4256C50.4782 11.0748 45.7595 10.8798 41.0407 10.6849C37.1342 10.529 33.2663 10.451 29.3598 10.2951C26.2269 10.1781 23.0939 9.90523 19.961 10.412C16.0544 11.0748 13.1922 13.1409 11.7611 16.9614C10.9489 19.1445 10.8328 21.4446 10.7942 23.7446C10.7555 27.0193 10.8328 30.255 10.8715 33.5297C10.9102 36.1416 11.1036 38.7146 11.9158 41.2096C12.9215 44.3673 14.8554 46.6674 18.1817 47.4471C19.8836 47.8369 21.6241 48.0318 23.3647 48.1878C25.9561 48.4217 28.5476 48.5776 31.139 48.7725C31.6418 48.8115 31.9899 49.0064 32.1833 49.5132C32.2994 49.7861 32.4928 50.059 32.6861 50.2539C33.1116 50.7217 33.6531 51.1116 34.0399 51.5794C35.2389 52.8659 36.3219 54.1524 37.521 55.5558Z" fill="#FFA800"/>
<path d="M89.1472 60H97.3357V26.8965H89.1472V60Z" fill="#FFA800"/>
<path d="M111.458 41.7035V33.404H115.912C119.168 33.404 120.556 35.0073 120.556 37.5538C120.556 40.1002 119.168 41.7035 115.912 41.7035H111.458ZM128.889 37.5538C128.889 31.4707 124.77 26.8965 116.534 26.8965H103.27V60H111.458V48.1167H116.534C125.106 48.1167 128.889 43.0238 128.889 37.5538Z" fill="#FFA800"/>
<path d="M131.332 33.3569H140.239V60H148.427V33.3569H157.334V26.8965H131.332V33.3569Z" fill="#FFA800"/>
<path d="M175.953 51.8891L167.621 26.8965H158.905L170.829 60H181.076L193 26.8965H184.333L175.953 51.8891Z" fill="#FFA800"/>
<path d="M102.336 8.6267C103.682 8.6267 104.836 8.6798 105.799 8.786C106.762 8.8922 107.571 9.0515 108.227 9.2639C108.891 9.46813 109.42 9.72546 109.812 10.0359C110.203 10.3463 110.506 10.7017 110.719 11.102C110.932 11.4941 111.068 11.9352 111.128 12.4254C111.196 12.9155 111.23 13.4465 111.23 14.0184C111.23 14.5902 111.175 15.1294 111.064 15.6359C110.962 16.1342 110.774 16.5917 110.502 17.0083C110.229 17.425 109.858 17.7967 109.39 18.1234C108.921 18.4502 108.325 18.728 107.601 18.9567C106.877 19.1854 106.003 19.357 104.981 19.4714C103.967 19.5939 102.779 19.6552 101.415 19.6552H98.1439C96.9171 19.6552 95.8436 19.6102 94.9235 19.5204C94.0034 19.4305 93.2111 19.2957 92.5466 19.116C91.882 18.9281 91.3325 18.6953 90.898 18.4175C90.4635 18.1316 90.1142 17.8007 89.8501 17.425C89.5945 17.041 89.4156 16.608 89.3134 16.1261C89.2111 15.6359 89.16 15.0967 89.16 14.5085H91.6137C91.6137 15.2438 91.7244 15.8197 91.9459 16.2363C92.1674 16.653 92.5338 16.9675 93.0449 17.1799C93.5561 17.3841 94.2249 17.5148 95.0513 17.572C95.8862 17.621 96.9171 17.6455 98.1439 17.6455H101.415C102.847 17.6455 104.035 17.5802 104.981 17.4495C105.927 17.3188 106.681 17.1104 107.243 16.8245C107.805 16.5386 108.201 16.1669 108.431 15.7094C108.661 15.2438 108.776 14.6801 108.776 14.0184C108.776 13.3567 108.695 12.8053 108.534 12.3641C108.38 11.923 108.069 11.5717 107.601 11.3103C107.141 11.0489 106.489 10.8651 105.645 10.7589C104.802 10.6445 103.699 10.5873 102.336 10.5873H98.9618C97.4624 10.5873 96.1759 10.5342 95.1024 10.428C94.0375 10.3218 93.1429 10.1707 92.4188 9.97462C91.6946 9.77039 91.1153 9.52123 90.6808 9.22714C90.2463 8.92488 89.914 8.58177 89.684 8.19782C89.4624 7.81387 89.3176 7.38907 89.2495 6.92342C89.1813 6.4496 89.1472 5.93903 89.1472 5.39169C89.1472 4.81984 89.1983 4.28884 89.3006 3.79869C89.4113 3.30854 89.6115 2.8674 89.9012 2.47528C90.1909 2.07498 90.587 1.71962 91.0897 1.40919C91.5924 1.09876 92.2356 0.84143 93.0194 0.6372C93.8117 0.4248 94.7617 0.2655 95.8692 0.1593C96.9767 0.0531 98.2802 0 99.7797 0H102.233C103.46 0 104.534 0.0449308 105.454 0.134792C106.374 0.216485 107.166 0.351277 107.831 0.539169C108.495 0.718892 109.045 0.94763 109.479 1.22538C109.922 1.49497 110.272 1.82174 110.527 2.20569C110.791 2.58148 110.974 3.01036 111.077 3.49234C111.179 3.97433 111.23 4.50941 111.23 5.0976H108.776C108.776 4.36237 108.666 3.78644 108.444 3.36981C108.223 2.95318 107.856 2.64274 107.345 2.43851C106.834 2.22611 106.161 2.09541 105.326 2.04639C104.491 1.98921 103.46 1.96061 102.233 1.96061H99.7797C98.1439 1.96061 96.7978 2.0178 95.7414 2.13217C94.685 2.23837 93.85 2.42218 93.2366 2.68359C92.6232 2.94501 92.1972 3.29628 91.9587 3.73742C91.7201 4.17856 91.6009 4.72998 91.6009 5.39169C91.6009 5.80015 91.6307 6.16368 91.6903 6.48228C91.75 6.80088 91.8692 7.08272 92.0481 7.3278C92.2356 7.5647 92.4954 7.76485 92.8277 7.92823C93.16 8.09162 93.5987 8.22641 94.144 8.33261C94.6892 8.43881 95.3538 8.51642 96.1376 8.56543C96.9299 8.60628 97.8713 8.6267 98.9618 8.6267H102.336Z" fill="white"/>
<path d="M114.912 19.214V0.392123H134.542V2.35274H117.366V8.6267H133.724V10.5873H117.366V17.2534H134.542V19.214H114.912Z" fill="white"/>
<path d="M137.406 0.392123H139.86V19.214H137.406V0.392123Z" fill="white"/>
<path d="M143.542 19.214V17.2534L162.532 2.35274H144.36V0.392123H166.034V2.35274L146.941 17.2534H166.443V19.214H143.542Z" fill="white"/>
<path d="M190.546 0.392123H193V19.214H190.546V10.5873H172.553V19.214H170.099V0.392123H172.553V8.6267H190.546V0.392123Z" fill="white"/>
</svg>
