<svg width="24" height="24" viewBox="0 0 24 24" fill="none" xmlns="http://www.w3.org/2000/svg">
<path d="M22 4.30268C22 9.43423 22 14.5658 22 19.6973C21.8334 20.1922 21.4586 20.4892 21.0109 20.7184C20.9381 20.7549 20.86 20.7966 20.7819 20.8278C20.0427 21.1612 19.2566 21.3436 18.4654 21.4895C17.1015 21.7395 15.722 21.8645 14.3373 21.9323C13.9469 21.9531 13.5617 21.9792 13.1713 22C12.3904 22 11.6096 22 10.8287 22C10.7663 21.9896 10.7038 21.9792 10.6361 21.974C9.36595 21.8802 8.09578 21.8125 6.82561 21.6822C5.69599 21.5676 4.57158 21.3592 3.50442 20.9476C2.86934 20.7028 2.25508 20.411 2 19.6973C2 14.5658 2 9.43423 2 4.30268C2.14055 3.8807 2.44248 3.59417 2.81728 3.37536C2.9214 3.31284 3.03592 3.25554 3.14524 3.20344C3.99375 2.81792 4.88912 2.62516 5.78969 2.46887C7.08589 2.24486 8.3925 2.13024 9.70432 2.06773C10.0687 2.0521 10.4279 2.02084 10.7923 2C11.5992 2 12.406 2 13.2129 2C13.343 2.01042 13.468 2.03126 13.5981 2.03647C15.1546 2.09377 16.7059 2.20839 18.2363 2.46887C19.1161 2.61995 19.9854 2.8075 20.8027 3.17739C21.3285 3.41704 21.797 3.7192 22 4.30268ZM3.25976 15.8474C3.25976 15.9515 3.25976 16.0245 3.25976 16.0922C3.25976 17.1289 3.27017 18.1605 3.25455 19.1972C3.24935 19.416 3.32743 19.5462 3.51484 19.614C3.93649 19.765 4.35294 19.937 4.78501 20.0464C6.54451 20.4892 8.34565 20.6663 10.152 20.7028C11.6356 20.734 13.1192 20.7132 14.5976 20.6663C16.1176 20.6142 17.6325 20.4371 19.1109 20.0724C19.6002 19.9526 20.0687 19.7494 20.5424 19.5775C20.6986 19.5202 20.7507 19.4056 20.7507 19.2284C20.7402 18.1761 20.7454 17.1185 20.7454 16.0662C20.7454 15.9984 20.7402 15.9307 20.735 15.8526C20.5424 15.9255 20.3706 15.9932 20.2041 16.0505C20.0271 16.1131 19.8449 16.1651 19.6627 16.212C17.7366 16.7174 15.7689 16.858 13.7959 16.9518C12.1249 17.0352 10.4539 17.0039 8.78813 16.8685C7.75742 16.7851 6.73191 16.6601 5.71161 16.509C4.88391 16.3996 4.07184 16.1912 3.25976 15.8474ZM20.7507 5.90206C20.1052 6.07919 19.4857 6.27716 18.8558 6.4074C16.8256 6.83459 14.759 6.944 12.6923 6.99088C11.063 7.02735 9.43883 6.94921 7.81989 6.79291C6.63821 6.68872 5.46694 6.52722 4.32691 6.20943C3.97293 6.11566 3.62415 5.98541 3.25976 5.86559C3.25976 5.94374 3.25976 6.01667 3.25976 6.0844C3.25976 7.12634 3.26497 8.16827 3.25455 9.21021C3.25455 9.41339 3.32223 9.53842 3.49401 9.60094C3.92087 9.75723 4.34253 9.93436 4.7798 10.0438C6.51327 10.4814 8.28839 10.6325 10.0687 10.7106C11.771 10.7835 13.4732 10.7627 15.1754 10.6377C16.4977 10.5439 17.8199 10.398 19.1057 10.075C19.595 9.94999 20.0635 9.75202 20.5372 9.58531C20.6934 9.528 20.7507 9.4186 20.7507 9.23626C20.7402 8.1839 20.7454 7.12633 20.7454 6.07398C20.7507 6.01146 20.7507 5.94374 20.7507 5.90206ZM20.7507 10.9138C20.0375 11.0961 19.3503 11.3097 18.6476 11.4504C16.6903 11.8411 14.7017 11.9505 12.7132 11.9974C11.0734 12.0339 9.43363 11.9557 7.80427 11.7994C6.633 11.69 5.46694 11.5285 4.33212 11.2159C3.97814 11.117 3.62936 10.9919 3.26497 10.8721C3.26497 10.9502 3.26497 11.0232 3.26497 11.0909C3.26497 12.1328 3.27017 13.1748 3.25976 14.2167C3.25976 14.4199 3.32223 14.5449 3.49922 14.6074C3.92608 14.7637 4.34774 14.9409 4.78501 15.0503C6.54451 15.4931 8.34565 15.6702 10.152 15.7119C11.6356 15.7432 13.1192 15.7223 14.5976 15.6754C16.1124 15.6233 17.6169 15.4514 19.0953 15.0867C19.5846 14.9669 20.0531 14.7742 20.532 14.6022C20.6986 14.5449 20.7663 14.4199 20.7611 14.2271C20.7507 13.1852 20.7559 12.1433 20.7559 11.1013C20.7507 11.0284 20.7507 10.9555 20.7507 10.9138ZM3.32743 4.50065C3.42113 4.55275 3.4784 4.59964 3.54086 4.62047C3.90005 4.75072 4.25403 4.90701 4.62363 5.00078C6.38834 5.46444 8.19469 5.62073 10.0115 5.70409C12.1874 5.79786 14.3581 5.75619 16.5185 5.51133C17.6221 5.3863 18.7257 5.21959 19.7876 4.88617C20.0843 4.79239 20.3706 4.65694 20.657 4.54233C20.6517 4.52149 20.6465 4.49544 20.6413 4.4746C20.558 4.42772 20.48 4.37041 20.3915 4.33915C20.0583 4.21933 19.7251 4.08388 19.3816 3.9901C17.5804 3.51602 15.7324 3.36494 13.8792 3.28679C12 3.20865 10.1208 3.23991 8.24154 3.40662C7.02342 3.51602 5.80531 3.67752 4.61322 3.99531C4.18116 4.10992 3.74909 4.23496 3.32743 4.50065Z" fill="black"/>
<path d="M7.00781 18.6762C7.00781 19.1347 6.633 19.5046 6.17491 19.5046C5.72202 19.5046 5.34201 19.1347 5.3368 18.6762C5.3316 18.2178 5.72202 17.827 6.18011 17.8322C6.63821 17.8427 7.00781 18.2178 7.00781 18.6762Z" fill="black"/>
<path d="M6.1697 9.50195C5.71681 9.50195 5.34201 9.12165 5.34201 8.6684C5.34201 8.21516 5.71681 7.83485 6.1697 7.83485C6.6278 7.82964 7.01301 8.21516 7.00781 8.67882C7.0026 9.13207 6.6278 9.50195 6.1697 9.50195Z" fill="black"/>
<path d="M7.00781 13.6697C7.00781 14.1282 6.63821 14.5033 6.18011 14.5033C5.71681 14.5085 5.3316 14.1229 5.34201 13.6593C5.34721 13.206 5.73243 12.8309 6.18011 12.8309C6.633 12.8362 7.00781 13.2165 7.00781 13.6697Z" fill="black"/>
</svg>
