<svg width="20" height="16" viewBox="0 0 20 16" fill="none" xmlns="http://www.w3.org/2000/svg">
<path d="M0 6.10052C0.188425 5.53148 0.565276 5.3418 1.15747 5.3418C1.91117 5.3689 2.63795 5.3418 3.39166 5.3418C3.49933 5.3418 3.63392 5.28761 3.71467 5.23341C5.30283 3.90565 6.89098 2.60499 8.47914 1.27724C8.93674 0.897875 9.52894 0.924973 9.85195 1.38562C9.95962 1.54821 10.0404 1.79208 10.0404 1.98176C10.0673 2.44241 10.0404 2.93016 10.0404 3.39081C10.0404 6.96763 10.0404 10.5444 10.0404 14.1484C10.0404 14.7174 9.74428 15.0968 9.23284 15.1781C8.93674 15.2052 8.7214 15.0968 8.50606 14.9342C7.24092 13.9316 6.05653 12.929 4.84522 11.9264C4.44145 11.6012 4.0646 11.2761 3.66083 10.9509C3.58008 10.8967 3.47241 10.8425 3.36474 10.8425C2.63795 10.8425 1.91117 10.8154 1.18439 10.8425C0.619112 10.8696 0.188425 10.6799 0 10.1109C0 8.78313 0 7.45538 0 6.10052Z" fill="white"/>
<path d="M20 7.80764C19.9462 10.9238 19.0579 13.4167 17.3082 15.6116C16.9583 16.0452 16.4199 16.1265 15.9892 15.8013C15.4778 15.3948 15.3701 14.8529 15.747 14.3922C16.2046 13.7961 16.6622 13.1729 16.9852 12.4683C17.4697 11.4928 17.7927 10.4632 17.9273 9.37927C18.2503 6.83214 17.6581 4.52889 16.2046 2.41531C16.0161 2.17144 15.8008 1.92757 15.6124 1.68369C15.2086 1.19594 15.2894 0.654002 15.8008 0.220448C16.2046 -0.131815 16.7429 -0.0505235 17.1198 0.38303C18.5464 2.03595 19.4347 3.93275 19.8116 6.07342C19.9192 6.75085 19.9731 7.42828 20 7.80764Z" fill="white"/>
<path d="M15.5855 8.02442C15.5855 9.70444 15.1009 11.1406 14.1588 12.4412C13.8627 12.8748 13.2974 12.9561 12.8937 12.6851C12.3822 12.3329 12.2207 11.7638 12.5168 11.3032C12.9206 10.707 13.2436 10.1109 13.4051 9.40637C13.782 7.80764 13.5128 6.3173 12.5707 4.96244C12.4361 4.77276 12.3015 4.55599 12.2207 4.33921C12.0861 3.90565 12.3822 3.41791 12.8398 3.20113C13.2167 3.01145 13.6743 3.11984 13.9435 3.4992C15.0471 4.85405 15.5855 6.37149 15.5855 8.02442Z" fill="white"/>
</svg>
