<svg width="20" height="18" viewBox="0 0 20 18" fill="none" xmlns="http://www.w3.org/2000/svg">
<path d="M17.5932 6.4181C17.7956 6.43001 17.9743 6.42405 18.1529 6.45382C19.5103 6.67411 20.3022 7.9482 19.8913 9.25802C19.4091 10.806 18.9149 12.342 18.4208 13.89C18.2362 14.4675 18.0576 15.051 17.8671 15.6285C17.5575 16.5692 16.7716 17.1467 15.7833 17.1467C11.2644 17.1467 6.75151 17.1467 2.23264 17.1467C0.952594 17.1467 0 16.1881 0 14.914C0 10.6929 0 6.47764 0 2.25646C0 0.916871 0.910918 0.00595371 2.25646 0C3.50078 0 4.73915 0.00595371 5.98348 0C6.56694 0 7.07301 0.178611 7.53144 0.535834C8.40664 1.22646 9.29374 1.90519 10.1689 2.59582C10.3952 2.77443 10.6333 2.86373 10.9251 2.85778C12.3897 2.85183 13.8543 2.85183 15.3248 2.85183C16.6823 2.85183 17.5873 3.76274 17.5932 5.12019C17.5932 5.55481 17.5932 5.97752 17.5932 6.4181ZM1.78016 15.6225C1.98854 15.6583 2.16715 15.7118 2.34576 15.7118C6.81104 15.7178 11.2763 15.7178 15.7416 15.7178C16.2 15.7178 16.4263 15.557 16.5692 15.1224C17.2241 13.0624 17.879 11.0025 18.5339 8.94247C18.7304 8.31733 18.397 7.8589 17.7361 7.8589C13.4494 7.8589 9.16276 7.8589 4.87609 7.8589C4.41765 7.8589 4.19737 8.01965 4.06043 8.46022C3.73893 9.46045 3.42338 10.4547 3.10784 11.4549C2.66726 12.8243 2.23264 14.1877 1.78016 15.6225ZM16.1405 6.43001C16.1524 6.38238 16.1584 6.37047 16.1584 6.35856C16.1584 5.9418 16.1643 5.52504 16.1584 5.10828C16.1584 4.5665 15.8785 4.28667 15.3308 4.28667C13.8662 4.28667 12.4016 4.28072 10.931 4.29262C10.2999 4.29858 9.75813 4.10806 9.26397 3.71512C8.40069 3.03044 7.52549 2.36362 6.6622 1.67895C6.44191 1.50629 6.20377 1.42889 5.92394 1.42889C4.70343 1.43484 3.48292 1.42889 2.26241 1.43484C1.69085 1.42889 1.42889 1.69681 1.42889 2.28027C1.42889 5.34643 1.42889 8.41259 1.42889 11.4788C1.42889 11.5442 1.42889 11.6157 1.42889 11.6812C1.48247 11.6276 1.50629 11.574 1.52415 11.5204C1.88137 10.3892 2.2386 9.25206 2.59582 8.12086C2.95899 6.97179 3.6913 6.43001 4.888 6.43001C8.54953 6.43001 12.2111 6.43001 15.8726 6.43001C15.9559 6.43001 16.0452 6.43001 16.1405 6.43001Z" fill="black"/>
</svg>
