<svg width="154" height="191" viewBox="0 0 154 191" fill="none" xmlns="http://www.w3.org/2000/svg">
<g clip-path="url(#clip0_289_1119)">
<path d="M2.79395 143.398L85.0007 191L154 151.049L71.7934 103.362L2.79395 143.398Z" fill="#1F1F1F"/>
<path d="M147.481 149.519L85.0003 185.73L14.731 144.929L77.1268 108.718L147.481 149.519Z" fill="#646464"/>
<path opacity="0.5" d="M147.481 149.519L85.0003 185.73L14.731 144.929L77.1268 108.718L147.481 149.519Z" fill="black"/>
<path d="M77.1268 59.5859V108.717L14.731 144.928V95.7969L77.1268 59.5859Z" fill="#646464"/>
<path opacity="0.23" d="M77.1268 59.5859V108.717L14.731 144.928V95.7969L77.1268 59.5859Z" fill="black"/>
<path d="M85.0003 136.683V185.729L14.731 144.928V95.7969L85.0003 136.683Z" fill="#494949"/>
<path opacity="0.38" d="M85.0003 136.683V185.729L14.731 144.928V95.7969L85.0003 136.683Z" fill="black"/>
<path d="M147.481 100.472V149.518L77.127 108.717V59.5859L147.481 100.472Z" fill="#646464"/>
<path opacity="0.4" d="M147.481 100.472V149.518L77.127 108.717V59.5859L147.481 100.472Z" fill="black"/>
<path d="M147.481 149.519V100.473L85.0005 136.684V185.73L147.481 149.519Z" fill="#646464"/>
<path opacity="0.23" d="M147.481 149.519V100.473L85.0005 136.684V185.73L147.481 149.519Z" fill="black"/>
<path d="M77.127 59.5864L77.2116 32.4707L147.396 73.3568L147.481 100.472L77.127 59.5864Z" fill="#646464"/>
<path opacity="0.2" d="M77.127 59.5864L77.2116 32.4707L147.396 73.3568L147.481 100.472L77.127 59.5864Z" fill="black"/>
<path d="M85.0005 136.683L90.8422 112.883L152.73 77.0117L147.481 100.472L85.0005 136.683Z" fill="#646464"/>
<path opacity="0.3" d="M85.0005 136.683L90.8422 112.883L152.73 77.0117L147.481 100.472L85.0005 136.683Z" fill="black"/>
<path d="M14.731 95.7971L7.28076 71.1465L69.6766 34.9355L77.1268 59.5862L14.731 95.7971Z" fill="#646464"/>
<path opacity="0.1" d="M14.731 95.7971L7.28076 71.1465L69.6766 34.9355L77.1268 59.5862L14.731 95.7971Z" fill="black"/>
<path d="M14.7312 95.797L0 75.4814L70.354 116.283L85.0006 136.683L14.7312 95.797Z" fill="#4A4A4A"/>
<path opacity="0.45" d="M14.7312 95.797L0 75.4814L70.354 116.283L85.0006 136.683L14.7312 95.797Z" fill="black"/>
<g opacity="0.7">
<path d="M103.373 171.109C103.119 171.109 102.949 170.939 102.949 170.684V162.014C102.949 161.844 103.119 161.589 103.373 161.589C103.627 161.589 103.796 161.759 103.796 162.014V170.684C103.796 170.939 103.627 171.109 103.373 171.109Z" fill="white"/>
<path d="M102.272 165.159C102.187 165.159 102.187 165.159 102.102 165.159C101.933 165.074 101.848 164.819 101.933 164.649L103.288 161.504L104.812 163.289C104.981 163.459 104.896 163.714 104.812 163.799C104.642 163.969 104.388 163.884 104.304 163.799L103.542 162.949L102.695 164.989C102.526 164.989 102.441 165.159 102.272 165.159Z" fill="white"/>
<path d="M106.928 169.154C106.674 169.154 106.505 168.984 106.505 168.729V160.059C106.505 159.889 106.674 159.634 106.928 159.634C107.182 159.634 107.352 159.804 107.352 160.059V168.729C107.352 168.984 107.182 169.154 106.928 169.154Z" fill="white"/>
<path d="M105.827 163.119C105.743 163.119 105.743 163.119 105.658 163.119C105.489 163.034 105.404 162.779 105.489 162.609L106.843 159.464L108.367 161.249C108.537 161.419 108.452 161.674 108.367 161.759C108.198 161.929 107.944 161.844 107.859 161.759L107.097 160.909L106.251 162.949C106.081 163.034 105.997 163.119 105.827 163.119Z" fill="white"/>
</g>
<g opacity="0.7">
<path d="M93.1279 176.974C92.9585 176.974 92.8739 176.974 92.7046 176.889C92.4506 176.719 92.2812 176.379 92.2812 175.954V174.934C92.2812 174.764 92.4506 174.509 92.7046 174.509C92.9585 174.509 93.1279 174.679 93.1279 174.934V175.954C93.1279 176.124 93.2125 176.209 93.2125 176.209C93.2125 176.209 93.2972 176.209 93.4665 176.124C93.8052 175.954 94.1438 175.189 94.1438 174.424V170.004C94.1438 169.834 94.3131 169.579 94.5671 169.579C94.8211 169.579 94.9904 169.749 94.9904 170.004V174.424C94.9904 175.444 94.4825 176.464 93.8898 176.804C93.5512 176.974 93.3819 176.974 93.1279 176.974Z" fill="white"/>
<path d="M89.1489 173.404V172.724C89.1489 169.579 91.3501 165.754 94.0593 164.224C95.4139 163.459 96.7685 163.289 97.7844 163.884C98.8004 164.479 99.393 165.669 99.393 167.284V167.539L89.1489 173.404ZM96.3452 164.309C95.7526 164.309 95.0753 164.479 94.398 164.904C92.1121 166.264 90.1649 169.324 89.9109 172.044L98.5464 167.029C98.4617 165.839 98.1231 164.904 97.3611 164.479C97.0225 164.394 96.6838 164.309 96.3452 164.309Z" fill="white"/>
</g>
<path opacity="0.7" d="M0 75.4814L70.354 116.283L85.0006 136.683L69.5074 117.048L0 75.4814Z" fill="white"/>
<path opacity="0.7" d="M147.481 100.473L85.0005 136.684V185.73L86.1858 137.619L147.481 100.473Z" fill="white"/>
<path d="M55.7922 80.8375C62.2265 79.9025 68.1528 75.7374 71.8779 70.4673C73.6558 68.0022 74.9258 65.2821 75.6877 62.3921C76.365 59.757 76.7883 56.6969 76.111 53.9768C74.9258 49.3017 70.608 46.5816 66.1209 45.9866C63.8351 45.7316 61.4645 45.9016 59.2633 46.6667C56.8928 47.5167 55.0302 48.9617 53.591 50.9168C52.829 51.9368 52.0671 53.2968 52.0671 54.5719C52.0671 55.7619 52.829 56.5269 53.9296 56.6969C55.2842 56.9519 56.6388 56.3569 57.8241 55.6769C59.2633 54.9119 60.4486 53.8068 61.4645 52.6168C63.4964 50.0667 65.2743 46.9217 66.1209 43.6916C66.8829 40.9715 66.7136 37.9114 66.1209 35.1063C65.5283 32.3013 64.343 29.4112 62.3112 27.2861C60.1099 25.0761 57.0621 24.0561 54.0989 23.631C51.0511 23.206 47.9186 23.546 45.0401 24.4811C43.7702 24.9061 42.5003 25.5011 41.569 26.4361C40.807 27.1161 40.0451 28.2212 40.2991 29.3262C40.6377 30.5162 42.1616 30.9412 43.2622 30.7712C44.8708 30.6012 46.3947 29.5812 47.4953 28.4762C48.7652 27.2861 49.8659 25.7561 50.7125 24.2261C51.3051 23.121 51.7284 21.846 51.6438 20.571C51.5591 15.2158 45.6328 11.7307 40.9764 10.7107C39.7064 10.4557 38.4365 10.3707 37.1666 10.4557C36.7433 10.4557 36.9972 11.1357 37.3359 11.1357C39.7911 10.9657 42.3309 11.6457 44.4475 12.7508C46.564 13.7708 48.5113 15.3858 49.6965 17.4259C50.8818 19.5509 50.7125 21.931 49.5272 23.9711C48.6806 25.4161 47.6646 26.7761 46.4794 27.8812C45.4634 28.8162 43.9395 29.8362 42.5003 29.7512C42.077 29.7512 41.569 29.4962 41.3997 29.0712C41.2303 28.4762 41.6536 27.8812 41.9076 27.5412C42.5849 26.6911 43.6009 26.1811 44.6168 25.7561C47.072 24.6511 49.9505 24.3111 52.6597 24.3961C55.4535 24.5661 58.332 25.2461 60.5333 26.9461C62.6498 28.5612 63.9197 31.0262 64.6817 33.4913C65.4436 36.0414 65.7823 38.9314 65.4436 41.5665C65.105 44.2866 63.7504 46.9217 62.3958 49.2167C60.7872 51.8518 58.84 54.3168 55.8768 55.3369C55.1149 55.5919 53.591 56.0169 53.337 54.9119C53.083 53.8918 53.845 52.5318 54.4376 51.6818C55.6229 49.8117 57.3161 48.3667 59.348 47.5167C61.2952 46.7517 63.4118 46.4116 65.5283 46.5816C69.5074 46.9217 73.5712 48.9617 74.9258 52.9568C75.7724 55.2519 75.6031 57.8869 75.1798 60.267C74.6718 62.9021 73.7405 65.4521 72.3859 67.7472C69.5074 72.7623 65.0203 76.5024 59.7713 78.7125C58.5014 79.2225 57.2314 79.7325 55.8768 80.1575C55.6229 80.4975 55.7075 80.8375 55.7922 80.8375Z" fill="#E0E0E0"/>
<path d="M28.8696 7.05513C25.3984 6.80012 20.8267 9.5202 22.4353 11.4752C24.1285 13.4303 28.5309 10.2852 28.5309 10.2852C28.5309 10.2852 28.1076 14.2803 29.5469 14.7053C30.9861 15.1303 32.9333 11.3902 31.4941 9.01018C31.4941 9.01018 33.6953 9.94521 35.7272 8.50017C37.7591 7.05513 35.6425 5.52509 32.6794 5.7801C32.6794 5.7801 34.7112 -1.02008 30.5628 0.254952C28.6156 0.764966 27.8536 3.23003 28.8696 7.05513Z" fill="#F09000"/>
<path d="M32.0868 8.5001C31.9174 8.33009 31.6635 8.16009 31.4941 7.99008C31.1555 7.73508 30.9015 7.56507 30.5628 7.31007C30.3089 7.14006 29.9702 6.88505 29.6316 6.71505C29.4622 6.63005 29.2929 6.54505 29.0389 6.46004C28.7849 6.29004 28.531 6.29004 28.1923 6.29004C27.8537 6.29004 27.5997 6.63005 27.8537 6.97006C28.1077 7.31007 28.4463 7.39507 28.7849 7.56507C28.9543 7.65007 29.1236 7.73508 29.2083 7.82008C29.5469 7.99008 29.8009 8.24509 30.0549 8.41509C30.3089 8.6701 30.6475 8.84011 30.9015 9.01011C31.3248 9.35012 31.8328 9.69013 32.3407 9.86013C32.4254 9.86013 32.4254 9.86013 32.5101 9.86013C32.9334 9.52012 32.3407 8.7551 32.0868 8.5001Z" fill="#744500"/>
</g>
<defs>
<clipPath id="clip0_289_1119">
<rect width="154" height="191" fill="white"/>
</clipPath>
</defs>
</svg>
