<svg width="24" height="24" viewBox="0 0 24 24" fill="none" xmlns="http://www.w3.org/2000/svg">
<path d="M19.3788 16.2727C19.3788 13.5606 19.3788 10.7525 19.3838 7.99495C19.3838 7.19697 19.1061 6.54545 18.5303 6.0101C17.4545 5.00505 16.3131 3.92424 15.0404 2.70707C14.6919 2.37374 14.2475 2.14646 13.6919 2.0101L13.6566 2H6.06061L6.00505 2.0202C5.91414 2.05556 5.82323 2.08586 5.72727 2.12121C5.5 2.20202 5.26263 2.28788 5.0404 2.42929C4.36364 2.87879 4.00505 3.56566 4 4.41919C4 5.35354 4 6.30303 4 7.21717C4 7.60101 4 7.9899 4 8.37374V19.4091C4 20.7677 4.66162 21.6263 5.9596 21.9545L6.0202 22H17.298L17.3384 21.9899L17.4293 21.9646L17.6263 21.9091C18.101 21.7828 18.5404 21.495 18.8535 21.101C19.1717 20.7071 19.3586 20.2172 19.3737 19.7222C19.3788 19.601 19.3788 19.4848 19.3788 19.3687C19.3788 19.3384 19.3788 19.3081 19.3788 19.2778C19.3838 18.2778 19.3788 17.2727 19.3788 16.2727ZM11.7071 20.2576C9.9697 20.2576 8.23232 20.2576 6.49495 20.2576C5.9899 20.2576 5.74747 20.0101 5.74747 19.5C5.74747 14.5 5.74747 9.5 5.74747 4.5C5.74747 3.9798 5.9899 3.73737 6.5101 3.73737H12.8737V4.39394C12.8737 5.12121 12.8737 5.83333 12.8737 6.5505C12.8737 7.06061 13.0404 7.49495 13.3485 7.80808C13.6616 8.11616 14.096 8.28283 14.6061 8.28283C15.0152 8.28283 15.4293 8.28283 15.8384 8.28283H17.6465V11.096C17.6465 13.904 17.6465 16.7071 17.6465 19.5152C17.6465 20.005 17.3939 20.2525 16.899 20.2525C15.1616 20.2576 13.4343 20.2576 11.7071 20.2576ZM14.6061 6.54545V4.69697L16.5606 6.54545H15.8939C15.4596 6.54545 15.0354 6.54545 14.6061 6.54545Z" fill="black"/>
<path d="M7.22727 12.298C7.31818 12.3182 7.40404 12.3182 7.4798 12.3182H7.53535C9.11616 12.3182 10.6919 12.3182 12.2727 12.3182H15.0354C15.2626 12.3182 15.4899 12.3182 15.7172 12.3182C16.1061 12.3182 16.399 12.1263 16.5505 11.7828C16.6667 11.5152 16.6414 11.2222 16.4848 10.9798C16.3182 10.7273 16.0303 10.5758 15.7071 10.5758C15.1061 10.5758 14.5051 10.5758 13.904 10.5758C13.5152 10.5758 13.1263 10.5758 12.7323 10.5758C12.3535 10.5758 11.9747 10.5758 11.596 10.5758H11.5505C11.1919 10.5758 10.8283 10.5758 10.4697 10.5758C10.1111 10.5758 9.74747 10.5758 9.38889 10.5758C8.73737 10.5758 8.08081 10.5758 7.42929 10.5758C6.96465 10.5758 6.59091 10.904 6.5404 11.3485C6.49495 11.7929 6.78788 12.197 7.22727 12.298Z" fill="black"/>
<path d="M15.6919 13.6061C14.6717 13.6061 13.6515 13.6061 12.6313 13.6061H7.43939C7.07576 13.6061 6.78788 13.7778 6.63131 14.0909C6.49495 14.3636 6.50505 14.6717 6.65657 14.9242C6.81818 15.1919 7.11616 15.3485 7.44444 15.3485C7.9697 15.3485 8.54545 15.3485 9.24747 15.3485C9.62626 15.3485 10.0051 15.3485 10.3838 15.3485C10.7626 15.3485 11.1414 15.3485 11.5202 15.3485H11.7525C12.0909 15.3485 12.4343 15.3485 12.7727 15.3485C13.1162 15.3485 13.4596 15.3485 13.8081 15.3485C14.4293 15.3485 15.0505 15.3485 15.6667 15.3485C16.0657 15.3485 16.3687 15.1616 16.5202 14.8232C16.6414 14.5505 16.6212 14.2576 16.4646 14.0152C16.3182 13.7626 16.0253 13.6061 15.6919 13.6061Z" fill="black"/>
<path d="M10.1061 16.6364C9.67172 16.6364 9.23232 16.6364 8.79798 16.6364C8.35859 16.6364 7.91414 16.6364 7.47475 16.6364C6.93939 16.6364 6.54545 17 6.54545 17.5C6.54545 17.7323 6.63131 17.9495 6.78788 18.1061C6.9596 18.2778 7.19697 18.3737 7.46465 18.3737C7.64141 18.3737 7.81818 18.3737 7.9899 18.3737C8.12121 18.3737 8.25758 18.3737 8.38889 18.3737C8.5202 18.3737 8.65657 18.3737 8.78788 18.3737H8.79293C8.92424 18.3737 9.05556 18.3737 9.18687 18.3737C9.31818 18.3737 9.45455 18.3737 9.58586 18.3737C9.75758 18.3737 9.92929 18.3737 10.101 18.3737C10.3788 18.3737 10.6313 18.2727 10.803 18.096C10.9596 17.9343 11.0455 17.7222 11.0404 17.4899C11.0303 17 10.6414 16.6364 10.1061 16.6364Z" fill="black"/>
</svg>
