<svg width="24" height="24" viewBox="0 0 24 24" fill="none" xmlns="http://www.w3.org/2000/svg">
<path d="M21 4.18162C20.8668 4.42264 20.7452 4.67543 20.5888 4.89882C18.7355 7.5501 16.8706 10.1955 15.0173 12.8468C14.9536 12.9409 14.9131 13.0702 14.9131 13.1878C14.9131 14.628 14.9131 16.0683 14.9247 17.5086C14.9305 18.2669 14.6293 18.8666 14.0096 19.2898C13.3378 19.7484 12.666 20.2069 11.9942 20.6537C11.3571 21.077 10.6795 21.1122 10.0135 20.7595C9.34163 20.4009 9.01152 19.7954 9.01152 19.0253C8.99993 17.0736 8.99993 15.1218 8.98256 13.1701C8.98256 13.0467 8.93623 12.8997 8.86673 12.7939C6.99606 10.0838 5.1196 7.37962 3.24314 4.66955C2.9999 4.3227 2.91303 3.9641 3.10415 3.56435C3.27789 3.21163 3.56747 3.02351 3.9555 3C4.00183 3 4.04817 3 4.0945 3C9.3648 3 14.6293 3 19.8996 3C20.3513 3 20.6988 3.15872 20.9015 3.58199C20.9421 3.65841 20.9653 3.74659 21 3.82889C21 3.94647 21 4.06404 21 4.18162ZM10.9806 18.9312C11.0559 18.8842 11.1081 18.8489 11.1544 18.8195C11.7046 18.4492 12.2548 18.0729 12.8108 17.7085C12.9266 17.632 12.9613 17.5556 12.9613 17.4204C12.9498 15.7979 12.944 14.1754 12.944 12.5529C12.944 12.4412 12.9845 12.306 13.054 12.2119C14.693 9.87218 16.332 7.53247 17.971 5.19275C18.0116 5.13984 18.0463 5.08105 18.0926 5.01051C14.0212 5.01051 9.97291 5.01051 5.90725 5.01051C5.95358 5.08105 5.98254 5.13396 6.01729 5.18687C7.63313 7.51483 9.24318 9.84279 10.8532 12.1766C10.9169 12.2707 10.9575 12.4059 10.9633 12.5176C10.9748 14.5751 10.9806 16.6327 10.9864 18.6902C10.9806 18.7608 10.9806 18.8313 10.9806 18.9312Z" fill="black"/>
</svg>
