<svg width="24" height="24" viewBox="0 0 24 24" fill="none" xmlns="http://www.w3.org/2000/svg">
<path d="M19.5932 9.4181C19.7956 9.43001 19.9743 9.42405 20.1529 9.45382C21.5103 9.67411 22.3022 10.9482 21.8913 12.258C21.4091 13.806 20.9149 15.342 20.4208 16.89C20.2362 17.4675 20.0576 18.051 19.8671 18.6285C19.5575 19.5692 18.7716 20.1467 17.7833 20.1467C13.2644 20.1467 8.75151 20.1467 4.23264 20.1467C2.95259 20.1467 2 19.1881 2 17.914C2 13.6929 2 9.47764 2 5.25646C2 3.91687 2.91092 3.00595 4.25646 3C5.50078 3 6.73915 3.00595 7.98348 3C8.56694 3 9.07301 3.17861 9.53144 3.53583C10.4066 4.22646 11.2937 4.90519 12.1689 5.59582C12.3952 5.77443 12.6333 5.86373 12.9251 5.85778C14.3897 5.85183 15.8543 5.85183 17.3248 5.85183C18.6823 5.85183 19.5873 6.76274 19.5932 8.12019C19.5932 8.55481 19.5932 8.97752 19.5932 9.4181ZM3.78016 18.6225C3.98854 18.6583 4.16715 18.7118 4.34576 18.7118C8.81104 18.7178 13.2763 18.7178 17.7416 18.7178C18.2 18.7178 18.4263 18.557 18.5692 18.1224C19.2241 16.0624 19.879 14.0025 20.5339 11.9425C20.7304 11.3173 20.397 10.8589 19.7361 10.8589C15.4494 10.8589 11.1628 10.8589 6.87609 10.8589C6.41765 10.8589 6.19737 11.0196 6.06043 11.4602C5.73893 12.4604 5.42338 13.4547 5.10784 14.4549C4.66726 15.8243 4.23264 17.1877 3.78016 18.6225ZM18.1405 9.43001C18.1524 9.38238 18.1584 9.37047 18.1584 9.35856C18.1584 8.9418 18.1643 8.52504 18.1584 8.10828C18.1584 7.5665 17.8785 7.28667 17.3308 7.28667C15.8662 7.28667 14.4016 7.28072 12.931 7.29262C12.2999 7.29858 11.7581 7.10806 11.264 6.71511C10.4007 6.03044 9.52549 5.36362 8.6622 4.67895C8.44191 4.50629 8.20377 4.42889 7.92394 4.42889C6.70343 4.43484 5.48292 4.42889 4.26241 4.43484C3.69085 4.42889 3.42889 4.69681 3.42889 5.28027C3.42889 8.34643 3.42889 11.4126 3.42889 14.4788C3.42889 14.5442 3.42889 14.6157 3.42889 14.6812C3.48247 14.6276 3.50629 14.574 3.52415 14.5204C3.88137 13.3892 4.23859 12.2521 4.59582 11.1209C4.95899 9.97179 5.6913 9.43001 6.888 9.43001C10.5495 9.43001 14.2111 9.43001 17.8726 9.43001C17.9559 9.43001 18.0452 9.43001 18.1405 9.43001Z" fill="black"/>
</svg>
