<svg width="24" height="24" viewBox="0 0 24 24" fill="none" xmlns="http://www.w3.org/2000/svg">
<mask id="path-1-inside-1_19_245" fill="white">
<path d="M3 11.7308C3 10.0388 3 9.19275 3.35288 8.44909C3.70576 7.70544 4.36847 7.15485 5.6939 6.05369L6.97961 4.98552C9.3753 2.99517 10.5731 2 12 2C13.4268 2 14.6247 2.99517 17.0204 4.98552L18.3061 6.05369C19.6315 7.15485 20.2942 7.70544 20.6471 8.44909C21 9.19275 21 10.0388 21 11.7308V17.0152C21 19.3651 21 20.54 20.2468 21.27C19.4937 22 18.2815 22 15.8571 22H8.14286C5.71849 22 4.50631 22 3.75315 21.27C3 20.54 3 19.3651 3 17.0152V11.7308Z"/>
</mask>
<path d="M14.2143 22C14.2143 22.5523 14.662 23 15.2143 23C15.7666 23 16.2143 22.5523 16.2143 22H14.2143ZM7.78571 22C7.78571 22.5523 8.23343 23 8.78571 23C9.338 23 9.78571 22.5523 9.78571 22H7.78571ZM10.0714 15.5228H13.9286V13.5228H10.0714V15.5228ZM14.2143 15.769V22H16.2143V15.769H14.2143ZM7.78571 15.769V22H9.78571V15.769H7.78571ZM13.9286 15.5228C14.116 15.5228 14.2143 15.6622 14.2143 15.769H16.2143C16.2143 14.4993 15.1613 13.5228 13.9286 13.5228V15.5228ZM10.0714 13.5228C8.83872 13.5228 7.78571 14.4993 7.78571 15.769H9.78571C9.78571 15.6622 9.88398 15.5228 10.0714 15.5228V13.5228ZM6.97961 4.98552L8.25768 6.52387H8.25768L6.97961 4.98552ZM17.0204 4.98552L15.7423 6.52387V6.52387L17.0204 4.98552ZM18.3061 6.05369L19.5842 4.51533V4.51533L18.3061 6.05369ZM5.6939 6.05369L4.41583 4.51533H4.41583L5.6939 6.05369ZM19 11.7308V17.0152H23V11.7308H19ZM15.8571 20H8.14286V24H15.8571V20ZM5 17.0152V11.7308H1V17.0152H5ZM6.97196 7.59205L8.25768 6.52387L5.70154 3.44716L4.41583 4.51533L6.97196 7.59205ZM15.7423 6.52387L17.028 7.59205L19.5842 4.51533L18.2985 3.44716L15.7423 6.52387ZM8.25768 6.52387C9.49472 5.49614 10.2831 4.8458 10.9314 4.4308C11.5315 4.04663 11.8104 4 12 4V0C10.7628 0 9.72927 0.450957 8.77482 1.06196C7.86854 1.64213 6.86019 2.48455 5.70154 3.44716L8.25768 6.52387ZM18.2985 3.44716C17.1398 2.48455 16.1315 1.64213 15.2252 1.06196C14.2707 0.450957 13.2372 0 12 0V4C12.1896 4 12.4685 4.04663 13.0686 4.4308C13.7169 4.8458 14.5053 5.49614 15.7423 6.52387L18.2985 3.44716ZM8.14286 20C6.87583 20 6.12065 19.996 5.57975 19.9255C5.09014 19.8617 5.08601 19.7766 5.14513 19.8339L2.36118 22.7061C3.17345 23.4934 4.15199 23.7733 5.06286 23.892C5.92243 24.004 6.98552 24 8.14286 24V20ZM1 17.0152C1 18.1318 0.995484 19.1768 1.11311 20.0248C1.23963 20.9369 1.54018 21.9103 2.36118 22.7061L5.14513 19.8339C5.21297 19.8996 5.13695 19.9206 5.07518 19.4752C5.00452 18.9658 5 18.2484 5 17.0152H1ZM19 17.0152C19 18.2484 18.9955 18.9658 18.9248 19.4752C18.8631 19.9206 18.787 19.8996 18.8549 19.8339L21.6388 22.7061C22.4598 21.9103 22.7604 20.9369 22.8869 20.0248C23.0045 19.1768 23 18.1318 23 17.0152H19ZM15.8571 24C17.0145 24 18.0776 24.004 18.9371 23.892C19.848 23.7733 20.8266 23.4934 21.6388 22.7061L18.8549 19.8339C18.914 19.7766 18.9099 19.8617 18.4203 19.9255C17.8794 19.996 17.1242 20 15.8571 20V24ZM23 11.7308C23 10.2259 23.045 8.83711 22.454 7.59169L18.8402 9.3065C18.955 9.5484 19 9.85162 19 11.7308H23ZM17.028 7.59205C18.4984 8.81362 18.7212 9.05574 18.8402 9.3065L22.454 7.59169C21.8672 6.35513 20.7647 5.49609 19.5842 4.51533L17.028 7.59205ZM5 11.7308C5 9.85161 5.04499 9.5484 5.15977 9.3065L1.54599 7.59169C0.955014 8.83711 1 10.2259 1 11.7308H5ZM4.41583 4.51533C3.23533 5.49609 2.13276 6.35513 1.54599 7.59169L5.15977 9.3065C5.27876 9.05574 5.50161 8.81362 6.97196 7.59205L4.41583 4.51533Z" fill="#101010" mask="url(#path-1-inside-1_19_245)"/>
</svg>
