<svg width="24" height="24" viewBox="0 0 24 24" fill="none" xmlns="http://www.w3.org/2000/svg">
<path d="M12.5789 22C12.1919 22 11.7973 22 11.4103 22C11.0765 21.9545 10.7426 21.9241 10.4087 21.871C8.322 21.522 6.50086 20.6266 5.006 19.1241C2.75234 16.878 1.76589 14.1539 2.04665 10.9897C2.23636 8.86503 3.07104 6.99077 4.49002 5.40486C6.37186 3.28779 8.74693 2.14958 11.5697 2.01299C13.5426 1.91435 15.3941 2.37722 17.0862 3.4092C19.6814 4.99511 21.2749 7.28671 21.8364 10.284C21.9047 10.6558 21.9426 11.0428 21.9957 11.4222C21.9957 11.8092 21.9957 12.2038 21.9957 12.5908C21.9805 12.735 21.9654 12.8715 21.9502 13.0157C21.7074 15.1707 20.8879 17.0677 19.4385 18.6764C17.8982 20.3837 15.9935 21.4537 13.7247 21.8558C13.3377 21.9089 12.9583 21.9469 12.5789 22ZM11.9946 20.1789C16.4944 20.1789 20.1518 16.5214 20.1746 12.0065C20.1898 7.51435 16.4944 3.81896 11.9946 3.81896C7.49489 3.81896 3.82985 7.47641 3.81468 11.9837C3.79191 16.4759 7.48731 20.1789 11.9946 20.1789Z" fill="black"/>
<path d="M11.0916 14.116C11.0916 13.1902 11.0841 12.2721 11.0916 11.3463C11.0992 10.9821 11.2965 10.7165 11.6228 10.5723C11.9415 10.4282 12.2602 10.4661 12.541 10.6786C12.799 10.8759 12.8976 11.1415 12.8976 11.4602C12.8976 12.4694 12.8976 13.4786 12.8976 14.4878C12.8976 15.2845 12.9128 16.0889 12.89 16.8856C12.8748 17.5837 12.1009 17.9859 11.509 17.6141C11.2131 17.4244 11.0841 17.1436 11.0841 16.787C11.0916 15.8916 11.0841 15.0038 11.0916 14.116Z" fill="black"/>
<path d="M10.7805 7.46123C10.7805 6.79348 11.3269 6.24714 11.9946 6.24714C12.6548 6.24714 13.1935 6.7859 13.2011 7.44606C13.2087 8.10622 12.6472 8.66774 11.987 8.66015C11.3269 8.66015 10.7881 8.11381 10.7805 7.46123Z" fill="black"/>
</svg>
