<svg width="24" height="24" viewBox="0 0 24 24" fill="none" xmlns="http://www.w3.org/2000/svg">
<path d="M12.0039 12.7367C8.95385 12.7367 5.89599 12.7367 2.84594 12.7367C2.21408 12.7367 2.00347 12.5261 2.00347 11.8865C2.00347 11.5822 2.00347 11.278 2.00347 10.9816C2.01127 10.4745 2.24529 10.2405 2.76793 10.2327C2.81473 10.2327 2.86934 10.2327 2.91614 10.2327C8.96945 10.2327 15.0306 10.2327 21.0839 10.2327C21.8093 10.2327 21.9965 10.4199 21.9965 11.1532C21.9965 11.434 22.0043 11.7226 21.9965 12.0035C21.9887 12.4949 21.7469 12.7289 21.2477 12.7289C18.1664 12.7367 15.0852 12.7367 12.0039 12.7367Z" fill="black"/>
<path d="M12.0039 4C15.0462 4 18.0884 4 21.1307 4C21.8093 4 21.9965 4.18722 21.9965 4.87367C21.9965 5.1467 21.9965 5.41972 21.9965 5.69274C21.9965 6.27779 21.7859 6.48841 21.2009 6.48841C17.9558 6.48841 14.7029 6.48841 11.4579 6.48841C8.58722 6.48841 5.72438 6.48841 2.85374 6.48841C2.19848 6.48841 2.00347 6.29339 2.00347 5.63034C2.00347 5.34951 2.00347 5.06869 2.00347 4.78006C2.00347 4.21842 2.22189 4 2.78353 4C5.85699 4 8.93044 4 12.0039 4Z" fill="black"/>
<path d="M7.63554 16.481C9.24247 16.481 10.8494 16.481 12.4641 16.481C13.0336 16.481 13.2442 16.6917 13.2442 17.2533C13.2442 17.6121 13.252 17.971 13.2442 18.3376C13.2364 18.7198 13.0102 18.946 12.628 18.9772C12.5499 18.985 12.4719 18.9772 12.3939 18.9772C9.22687 18.9772 6.0598 18.9772 2.89274 18.9772C2.20628 18.9772 2.00347 18.7822 2.00347 18.1114C2.00347 17.7993 1.99567 17.4873 2.00347 17.1753C2.01907 16.7151 2.26089 16.481 2.72113 16.481C4.35926 16.481 5.9974 16.481 7.63554 16.481Z" fill="black"/>
<path d="M15.7482 17.7291C15.7482 16.8789 15.7482 16.0364 15.7482 15.1861C15.7482 14.5543 16.2397 14.2813 16.7857 14.6089C18.1976 15.4514 19.6095 16.3016 21.0215 17.1519C21.5363 17.4639 21.5441 18.0022 21.0215 18.3142C19.5939 19.1801 18.1664 20.0303 16.7311 20.8806C16.2319 21.177 15.7482 20.8884 15.7404 20.3112C15.7404 19.4453 15.7482 18.5872 15.7482 17.7291Z" fill="black"/>
</svg>
