<svg width="24" height="24" viewBox="0 0 24 24" fill="none" xmlns="http://www.w3.org/2000/svg">
<path d="M12.4276 2C12.6884 2.04698 12.9544 2.08874 13.2099 2.14616C15.249 2.6264 16.7875 4.35942 16.9492 6.44219C17.0326 7.50184 16.9857 8.57715 16.9961 9.64203C16.9961 9.75165 16.9961 9.86127 16.9961 10.0022C17.3507 10.0022 17.6897 9.99698 18.0339 10.0022C18.6023 10.0126 19.0821 10.2319 19.4681 10.6495C19.8435 11.0566 20 11.5473 20 12.0954C20 14.695 20 17.2945 19.9948 19.8888C19.9948 20.0715 19.9791 20.2542 19.9426 20.4317C19.7288 21.3713 18.9309 21.9925 17.9452 21.9977C15.5619 22.0029 13.1838 21.9977 10.8005 21.9977C9.20469 21.9977 7.61408 22.0029 6.01825 21.9977C5.05867 22.0029 4.26597 21.3661 4.05737 20.4421C4.02086 20.2751 4.00522 20.0924 4.00522 19.9201C4 17.3049 4 14.695 4 12.085C4 10.8687 4.8605 10.0126 6.08083 10.0074C6.3781 10.0074 6.67536 10.0074 7.00391 10.0074C7.00391 9.9239 7.00391 9.85605 7.00391 9.78819C7.00391 8.83293 6.9987 7.87246 7.00913 6.91721C7.02477 4.76658 8.39113 2.90305 10.4302 2.25056C10.8005 2.1305 11.1864 2.08352 11.5671 2C11.854 2 12.1408 2 12.4276 2ZM17.987 12.0171C13.987 12.0171 10.0026 12.0171 6.01304 12.0171C6.01304 14.6845 6.01304 17.3363 6.01304 19.9984C10.0078 19.9984 13.9922 19.9984 17.987 19.9984C17.987 17.3363 17.987 14.6793 17.987 12.0171ZM14.9831 9.99176C14.9883 9.95522 14.9987 9.93434 14.9987 9.90824C14.9987 8.89035 15.03 7.87768 14.9883 6.85979C14.9153 4.9806 13.2412 3.68605 11.4055 4.05145C9.98175 4.34376 9.01695 5.49738 9.0013 6.95897C8.99087 7.91422 8.99609 8.87469 9.0013 9.82995C9.0013 9.88736 9.01173 9.93956 9.01695 9.99176C11.0143 9.99176 12.9961 9.99176 14.9831 9.99176Z" fill="black"/>
</svg>
