<svg width="24" height="24" viewBox="0 0 24 24" fill="none" xmlns="http://www.w3.org/2000/svg">
<path d="M22 10.9349C22 11.5898 22 12.2447 22 12.8997C21.9896 12.9724 21.9689 13.0348 21.9689 13.1076C21.9379 14.3135 21.8032 15.4986 21.565 16.6837C21.4511 17.2451 21.2854 17.7857 20.9436 18.2535C20.3947 19.0124 19.5972 19.3451 18.7065 19.4802C17.9401 19.5946 17.153 19.6569 16.3762 19.7297C14.5948 19.896 12.803 20 11.0113 20C9.60276 19.9896 8.20457 19.9168 6.80639 19.7297C6.23676 19.6465 5.68784 19.5218 5.12857 19.3763C3.99966 19.0852 3.17111 18.4718 2.65326 17.4322C2.21827 16.5694 2.10434 15.6338 2.07327 14.6981C2.03184 12.7645 2.02149 10.8413 2.00077 8.92846C1.99042 8.19036 2.08363 7.45226 2.31148 6.74534C2.66362 5.66418 3.33682 4.90529 4.43465 4.54143C5.09749 4.32312 5.77069 4.27114 6.45425 4.26075C7.65565 4.22956 8.85706 4.20877 10.0481 4.16718C11.7363 4.1152 13.4348 4.02164 15.123 4.00085C16.314 3.99046 17.5051 4.07362 18.6754 4.34391C20.1875 4.69737 21.1818 5.58101 21.5754 7.11959C21.7929 7.98245 21.8446 8.85569 21.9171 9.73934C21.9482 10.1344 21.9689 10.5294 22 10.9349ZM12.047 18.8149C12.1506 18.6693 12.2645 18.5238 12.3473 18.3679C12.5338 18.004 12.7098 17.6298 12.8963 17.2659C12.948 17.1619 13.0516 17.0476 13.1552 17.0268C13.383 16.9852 13.6316 16.9644 13.8698 16.9956C14.7812 17.0996 15.6926 17.1827 16.6144 17.006C17.8262 16.7773 18.5615 16.0184 18.7686 14.7917C18.9654 13.6793 19.1001 12.5566 19.1311 11.4235C19.1518 10.6022 19.1311 9.78092 19.1104 8.95965C19.1001 8.64778 18.9758 8.36709 18.779 8.11759C18.2611 7.47305 17.5879 7.0988 16.7698 7.04682C15.5166 6.95326 14.253 6.90128 12.9895 6.8493C11.9434 6.80772 10.9077 6.78693 9.86168 6.74534C9.02277 6.71416 8.18386 6.64139 7.34495 6.77653C6.2989 6.95326 5.53248 7.50424 5.14928 8.52303C4.93178 9.10519 4.90071 9.71855 4.89036 10.3319C4.88 11.2051 4.90071 12.068 4.91107 12.9412C4.92143 13.6378 4.97321 14.3239 5.19071 14.9892C5.45999 15.8313 5.97783 16.4446 6.86853 16.6526C7.32423 16.7565 7.79029 16.8085 8.25636 16.8501C8.95027 16.9124 9.64418 16.954 10.3381 17.006C10.4727 17.0164 10.566 17.0684 10.6177 17.2035C10.6488 17.2763 10.7006 17.3491 10.7524 17.401C10.8663 17.5258 11.0113 17.6298 11.1149 17.7545C11.4359 18.0976 11.7259 18.4406 12.047 18.8149Z" fill="black"/>
</svg>
