<svg width="20" height="20" viewBox="0 0 20 20" fill="none" xmlns="http://www.w3.org/2000/svg">
<path d="M18.659 4.91923C18.075 3.90125 17.339 3.00518 16.457 2.2676C16.2259 2.07254 15.9461 1.96891 15.6541 1.96891C15.1006 1.96891 14.6383 2.32856 14.4984 2.87108C14.3706 3.37092 14.5227 3.80981 14.9667 4.20603C16.6577 5.72386 17.5093 7.65011 17.5641 10.1006C17.558 10.1798 17.5458 10.2652 17.5397 10.3627C17.5154 10.6187 17.4911 10.9296 17.4363 11.2405C16.8402 14.8979 13.7259 17.5556 10.0276 17.5556C9.5957 17.5556 9.15774 17.519 8.73195 17.4459C6.45701 17.0497 4.52271 15.672 3.40957 13.6544C2.28426 11.6062 2.15044 9.17403 3.05677 6.99177C3.50689 5.90673 4.17599 4.98019 5.10665 4.15117C5.3682 3.91954 5.51419 3.61475 5.53244 3.27949C5.55069 2.95032 5.43511 2.63944 5.21005 2.39561C4.97891 2.13959 4.65044 1.99939 4.32198 1.99939C4.01176 1.99939 3.70762 2.1274 3.47648 2.35294C3.40957 2.41999 3.34266 2.48095 3.28183 2.548C2.85604 2.96861 2.412 3.39531 2.0592 3.89515C0.812244 5.669 0.118813 7.5099 0.0154069 9.363C-0.0940821 11.2283 0.38037 13.1301 1.4266 15.0198C2.26602 16.5376 3.52514 17.7995 5.07015 18.6833C6.58475 19.5428 8.30008 20 10.0337 20C10.8792 20 11.7186 19.8903 12.5215 19.6769C15.5629 18.8601 18.0081 16.7266 19.2186 13.8129C20.429 10.8991 20.2222 7.6623 18.659 4.91923Z" fill="white"/>
<path d="M8.80494 9.16184C8.82927 9.6495 9.14557 10.0701 9.62002 10.2347C9.75384 10.2774 9.88766 10.3017 10.0215 10.3017C10.6906 10.3017 11.2198 9.75922 11.2198 9.06431C11.2259 8.13776 11.2259 7.19293 11.2259 6.28467C11.2259 5.91893 11.2259 5.54709 11.2259 5.18135C11.2259 4.79122 11.2259 4.395 11.2259 4.00488C11.2259 3.09662 11.2259 2.15178 11.2198 1.22524C11.2198 0.646144 10.8427 0.17068 10.2952 0.0365742C10.204 0.0121914 10.1066 0 10.0093 0C9.55311 0 9.14557 0.243828 8.95701 0.633953C8.85968 0.835111 8.80494 1.09113 8.80494 1.35325C8.79886 3.2673 8.79886 5.21792 8.79886 7.10149V8.43645C8.79886 8.49741 8.79886 8.55227 8.79886 8.61323C8.79886 8.79 8.79886 8.97287 8.80494 9.16184Z" fill="white"/>
</svg>
