<svg width="24" height="24" viewBox="0 0 24 24" fill="none" xmlns="http://www.w3.org/2000/svg">
<path d="M5.26621 22C4.97527 21.9266 4.6794 21.8728 4.39832 21.7701C2.83513 21.2077 1.83902 19.6376 2.02148 18.0334C2.21379 16.3362 3.48605 15.0303 5.15773 14.8102C5.89248 14.7124 6.59271 14.8298 7.25842 15.1575C7.31267 15.1819 7.36691 15.2064 7.42115 15.2308C7.43101 15.2357 7.44581 15.2308 7.47046 15.2259C7.47046 15.1526 7.47046 15.0743 7.47046 14.9961C7.47046 11.6164 7.47046 8.24155 7.47046 4.86185C7.47046 4.19667 7.74661 3.88365 8.40739 3.79072C11.302 3.37987 14.1966 2.96903 17.0863 2.55329C18.3635 2.37232 19.6407 2.19135 20.9228 2.01038C21.485 1.93213 21.9485 2.30385 21.9929 2.86631C21.9978 2.92012 21.9978 2.96903 21.9978 3.02283C21.9978 7.51279 22.0027 12.0027 21.9978 16.4927C21.9978 17.8818 21.3913 18.9627 20.193 19.6865C18.0183 20.9973 15.0843 19.5985 14.7588 17.0943C14.4876 15.0156 15.9275 13.1864 18.0134 12.9761C18.6791 12.9076 19.3202 13.025 19.9267 13.3184C20.0056 13.3576 20.0894 13.3967 20.1831 13.4407C20.1831 11.4647 20.1831 9.51322 20.1831 7.53235C16.5587 8.04591 12.9392 8.55947 9.29501 9.07302C9.29501 9.15617 9.29501 9.23932 9.29501 9.31758C9.29501 12.306 9.29501 15.2895 9.29501 18.2779C9.29501 19.5447 8.7871 20.5571 7.76141 21.3104C7.29294 21.6527 6.7653 21.8533 6.19328 21.9413C6.13411 21.9511 6.07986 21.9707 6.02562 21.9804C5.76427 22 5.5177 22 5.26621 22Z" fill="black"/>
</svg>
