<svg width="24" height="24" viewBox="0 0 24 24" fill="none" xmlns="http://www.w3.org/2000/svg">
<path d="M11.8476 2C11.9492 2 12.0586 2 12.1602 2C12.3634 2.14068 12.5901 2.2501 12.7542 2.41422C15.7007 5.34506 18.6393 8.29152 21.5701 11.2302C21.7421 11.4021 21.8593 11.6366 22 11.8398C22 11.9414 22 12.0508 22 12.1524C21.8593 12.3556 21.7421 12.5901 21.5701 12.762C18.6393 15.7007 15.7085 18.6393 12.762 21.5701C12.5901 21.7421 12.3556 21.8593 12.1524 22C12.0508 22 11.9414 22 11.8398 22C11.6366 21.8593 11.4021 21.7421 11.2302 21.5701C8.29152 18.6471 5.36069 15.7085 2.42986 12.7698C2.25791 12.5979 2.14068 12.3634 2 12.1602C2 12.0586 2 11.9492 2 11.8476C2.14068 11.6444 2.25791 11.4099 2.42986 11.238C5.3685 8.29152 8.30715 5.35287 11.2536 2.41422C11.4177 2.2501 11.6444 2.14068 11.8476 2ZM16.5291 11.9726C16.1618 11.9726 15.8101 11.9726 15.4428 11.9726C15.4428 12.3478 15.4428 12.7073 15.4428 13.0668C15.4428 13.1293 15.4193 13.2231 15.3802 13.2466C14.8644 13.5045 14.2548 13.567 13.7233 13.1762C13.1606 12.7542 12.9887 11.957 13.3091 11.3318C13.6374 10.6909 14.3329 10.3939 15.0285 10.6206C15.3333 10.7222 15.6147 10.8863 15.9195 11.0348C16.1227 10.7925 16.3494 10.5111 16.5916 10.222C15.771 9.5889 14.8644 9.36225 13.864 9.58109C12.7933 9.81555 11.9805 10.6987 11.8945 11.7147C11.7929 12.8714 12.3634 13.8484 13.4029 14.286C14.3486 14.6846 15.263 14.4893 16.1618 14.0907C16.4431 13.9656 16.6073 13.8093 16.5447 13.4732C16.5291 13.3794 16.5447 13.2778 16.5447 13.1841C16.5291 12.7855 16.5291 12.3791 16.5291 11.9726ZM7.44744 9.57327C7.44744 11.1911 7.44744 12.8167 7.44744 14.4345C7.86166 14.4345 8.26026 14.4345 8.6823 14.4345C8.6823 13.9734 8.6823 13.5279 8.6823 13.0668C8.76827 13.0668 8.83861 13.0668 8.90895 13.0668C9.22939 13.059 9.54982 13.0746 9.86245 13.0512C10.7222 12.9965 11.2927 12.5588 11.4725 11.7694C11.7225 10.6284 11.2224 9.68269 9.93279 9.5889C9.11997 9.52638 8.2837 9.57327 7.44744 9.57327Z" fill="black"/>
<path d="M8.69011 12.0821C8.69011 11.5584 8.69011 11.0582 8.69011 10.5111C9.08089 10.5346 9.46385 10.519 9.839 10.5815C10.2141 10.6362 10.3939 10.9644 10.3626 11.3943C10.3314 11.7929 10.0735 12.0586 9.65143 12.0821C9.33881 12.0977 9.02618 12.0821 8.69011 12.0821Z" fill="black"/>
</svg>
