<svg width="20" height="20" viewBox="0 0 20 20" fill="none" xmlns="http://www.w3.org/2000/svg">
<path d="M9.8476 0C9.9492 0 10.0586 0 10.1602 0C10.3634 0.14068 10.5901 0.250098 10.7542 0.414224C13.7007 3.34506 16.6393 6.29152 19.5701 9.23017C19.7421 9.40211 19.8593 9.63658 20 9.83978C20 9.94138 20 10.0508 20 10.1524C19.8593 10.3556 19.7421 10.5901 19.5701 10.762C16.6393 13.7007 13.7085 16.6393 10.762 19.5701C10.5901 19.7421 10.3556 19.8593 10.1524 20C10.0508 20 9.94138 20 9.83978 20C9.63658 19.8593 9.40211 19.7421 9.23017 19.5701C6.29152 16.6471 3.36069 13.7085 0.429855 10.7698C0.257913 10.5979 0.14068 10.3634 0 10.1602C0 10.0586 0 9.9492 0 9.8476C0.14068 9.64439 0.257913 9.40993 0.429855 9.23798C3.3685 6.29152 6.30715 3.35287 9.25362 0.414224C9.41774 0.250098 9.64439 0.14068 9.8476 0ZM14.5291 9.97265C14.1618 9.97265 13.8101 9.97265 13.4428 9.97265C13.4428 10.3478 13.4428 10.7073 13.4428 11.0668C13.4428 11.1293 13.4193 11.2231 13.3802 11.2466C12.8644 11.5045 12.2548 11.567 11.7233 11.1762C11.1606 10.7542 10.9887 9.95701 11.3091 9.33177C11.6374 8.6909 12.3329 8.3939 13.0285 8.62056C13.3333 8.72216 13.6147 8.88628 13.9195 9.03478C14.1227 8.7925 14.3494 8.51114 14.5916 8.22196C13.771 7.5889 12.8644 7.36225 11.864 7.58109C10.7933 7.81555 9.98046 8.69871 9.89449 9.71473C9.79289 10.8714 10.3634 11.8484 11.4029 12.286C12.3486 12.6846 13.263 12.4893 14.1618 12.0907C14.4431 11.9656 14.6073 11.8093 14.5447 11.4732C14.5291 11.3794 14.5447 11.2778 14.5447 11.1841C14.5291 10.7855 14.5291 10.3791 14.5291 9.97265ZM5.44744 7.57327C5.44744 9.19109 5.44744 10.8167 5.44744 12.4345C5.86166 12.4345 6.26026 12.4345 6.6823 12.4345C6.6823 11.9734 6.6823 11.5279 6.6823 11.0668C6.76827 11.0668 6.83861 11.0668 6.90895 11.0668C7.22939 11.059 7.54982 11.0746 7.86245 11.0512C8.72216 10.9965 9.29269 10.5588 9.47245 9.76944C9.72255 8.62837 9.22235 7.68269 7.93279 7.5889C7.11997 7.52638 6.2837 7.57327 5.44744 7.57327Z" fill="white"/>
<path d="M6.69011 10.0821C6.69011 9.55842 6.69011 9.05823 6.69011 8.51114C7.08089 8.53458 7.46385 8.51895 7.839 8.58148C8.21415 8.63619 8.3939 8.96444 8.36264 9.3943C8.33138 9.79289 8.07347 10.0586 7.65143 10.0821C7.33881 10.0977 7.02618 10.0821 6.69011 10.0821Z" fill="white"/>
</svg>
