<svg width="24" height="24" viewBox="0 0 24 24" fill="none" xmlns="http://www.w3.org/2000/svg">
<path d="M18.6445 22C14.2192 22 9.78865 22 5.36334 22C5.32159 21.9896 5.27984 21.9687 5.23288 21.9635C3.41683 21.7288 2.01305 20.1693 2.00783 18.3385C1.99739 14.1137 1.99739 9.8889 2.00783 5.66932C2.01305 3.66645 3.66732 2.01304 5.67123 2.00782C9.8878 1.99739 14.1096 1.99739 18.3262 2.00782C19.97 2.01304 21.4051 3.11879 21.8539 4.69918C21.9165 4.91824 21.953 5.14252 22 5.36159C22 9.7898 22 14.2128 22 18.641C21.9896 18.688 21.9739 18.7401 21.9635 18.7871C21.7078 20.2788 20.8728 21.2854 19.4534 21.8018C19.1924 21.8957 18.9159 21.9374 18.6445 22ZM3.3803 8.32416C3.3803 8.41283 3.3803 8.48585 3.3803 8.55887C3.3803 11.7614 3.3803 14.9639 3.3803 18.1664C3.3803 19.6112 4.39269 20.6282 5.83301 20.6282C9.9452 20.6282 14.0626 20.6282 18.1748 20.6282C19.6099 20.6282 20.6223 19.6112 20.6223 18.1768C20.6223 14.9691 20.6223 11.7614 20.6223 8.54844C20.6223 8.48064 20.6223 8.40762 20.6223 8.32416C14.8715 8.32416 9.14155 8.32416 3.3803 8.32416ZM14.5219 3.3848C14.5584 3.44739 14.5688 3.46825 14.5845 3.48911C15.4038 4.60529 16.2283 5.71626 17.0528 6.82723C17.0946 6.8846 17.2042 6.92111 17.2825 6.92111C18.3366 6.92633 19.3907 6.92633 20.4449 6.92633C20.5023 6.92633 20.5545 6.9159 20.6484 6.91068C20.6275 6.3578 20.6588 5.81536 20.5701 5.28856C20.3823 4.15673 19.4116 3.39001 18.2427 3.3848C17.0737 3.37958 15.8995 3.3848 14.7306 3.3848C14.668 3.3848 14.6158 3.3848 14.5219 3.3848ZM9.4651 6.9159C9.44945 6.87938 9.44423 6.85852 9.43379 6.84809C8.60404 5.72148 7.7743 4.60008 6.93933 3.47868C6.9028 3.42652 6.81409 3.39001 6.74625 3.39001C6.39661 3.37958 6.04175 3.37958 5.69211 3.39001C4.65884 3.41609 3.77691 4.07328 3.48989 5.03299C3.30202 5.64845 3.40639 6.28478 3.37508 6.9159C5.41552 6.9159 7.42988 6.9159 9.4651 6.9159ZM15.4038 6.92633C14.5375 5.74756 13.6973 4.61051 12.8519 3.47868C12.8102 3.42131 12.7006 3.3848 12.6223 3.3848C11.3386 3.37958 10.0548 3.37958 8.77626 3.37958C8.72929 3.37958 8.68232 3.39001 8.61448 3.39523C8.64057 3.44217 8.65623 3.46825 8.67188 3.49433C9.48597 4.60008 10.3053 5.70061 11.1142 6.81158C11.1872 6.91068 11.2707 6.92633 11.3803 6.92633C12.6484 6.92633 13.9217 6.92633 15.1898 6.92633C15.2524 6.92633 15.3099 6.92633 15.4038 6.92633Z" fill="black"/>
<path d="M9.18852 14.4632C9.18852 13.4409 9.18852 12.4186 9.18852 11.4015C9.18852 10.7443 9.73125 10.4313 10.3001 10.7599C12.0691 11.777 13.8382 12.7993 15.6021 13.8216C15.9935 14.0459 16.1448 14.411 15.9622 14.75C15.8787 14.9013 15.7325 15.0369 15.5812 15.1204C14.1618 15.9497 12.7371 16.7685 11.3125 17.5926C10.968 17.7908 10.6288 17.989 10.2792 18.1872C9.73125 18.5002 9.18852 18.182 9.18852 17.5561C9.18852 16.5182 9.18852 15.4907 9.18852 14.4632ZM10.5766 12.5125C10.5766 13.8321 10.5766 15.1099 10.5766 16.4191C11.7091 15.7671 12.8206 15.1256 13.9583 14.4684C12.8154 13.806 11.7091 13.1644 10.5766 12.5125Z" fill="black"/>
</svg>
