<svg width="24" height="24" viewBox="0 0 24 24" fill="none" xmlns="http://www.w3.org/2000/svg">
<path d="M6.66411 22C6.15375 21.7799 6.04147 21.5158 6.2303 21.0024C7.66954 17.1927 9.10367 13.3782 10.548 9.56855C10.599 9.4365 10.5786 9.36804 10.4715 9.27512C9.68549 8.61491 9.46092 7.55858 9.89984 6.66363C10.3439 5.75891 11.3289 5.26008 12.3802 5.40191C13.3652 5.53884 14.1869 6.3262 14.3145 7.30428C14.4166 8.07208 14.1665 8.73228 13.5643 9.25556C13.452 9.35337 13.4367 9.43161 13.4877 9.56855C14.9219 13.3733 16.3509 17.1829 17.7748 20.9877C17.836 21.154 17.8718 21.3447 17.8463 21.5158C17.8105 21.7799 17.586 21.9071 17.341 21.9951C17.2593 21.9951 17.1777 21.9951 17.096 21.9951C16.7847 21.9071 16.6265 21.6919 16.5295 21.4083C16.4172 21.0855 16.2998 20.7676 16.1722 20.4546C16.1314 20.3568 16.0702 20.2541 15.9936 20.1808C14.7177 18.9288 13.4367 17.6769 12.1608 16.4298C12.1148 16.3858 12.0689 16.3467 11.9974 16.2831C11.9362 16.3565 11.8852 16.42 11.829 16.4738C10.8032 17.4764 9.79266 18.4985 8.7311 19.4717C8.13907 20.0145 7.69506 20.6062 7.49601 21.3691C7.41946 21.6626 7.25104 21.8826 6.94992 22C6.85295 22 6.76108 22 6.66411 22ZM12.0281 14.4052C12.4466 14.0237 12.8957 13.608 13.3397 13.1923C13.3805 13.1581 13.3908 13.0603 13.3703 13.0065C12.9927 11.9893 12.6099 10.977 12.2373 9.96467C12.1965 9.85708 12.1301 9.83752 12.023 9.84241C11.9158 9.8473 11.8392 9.84241 11.7933 9.96956C11.4156 10.9868 11.0329 11.9942 10.6552 13.0114C10.6348 13.0603 10.645 13.1483 10.6756 13.1777C11.1298 13.5983 11.5892 14.0091 12.0281 14.4052ZM12.0026 8.57579C12.564 8.58068 13.0131 8.15521 13.0233 7.62216C13.0284 7.09399 12.5742 6.65385 12.023 6.64896C11.4667 6.64407 11.0124 7.06954 11.0022 7.6026C10.992 8.13076 11.4463 8.5709 12.0026 8.57579ZM10.0887 14.4981C9.73652 15.4371 9.37416 16.4005 9.04242 17.271C9.68038 16.689 10.3796 16.0484 11.089 15.4028C10.747 15.0898 10.4255 14.8013 10.0887 14.4981ZM13.9419 14.5128C13.6153 14.8111 13.2938 15.1094 12.9365 15.4371C13.6357 16.0679 14.3349 16.7037 14.9831 17.2954C14.6514 16.4054 14.289 15.4371 13.9419 14.5128Z" fill="black"/>
<path d="M4 7.88624C4.03062 5.52417 4.81148 3.72938 6.32727 2.22313C6.59777 1.95416 6.98565 1.93949 7.25614 2.16934C7.53174 2.40408 7.54705 2.77086 7.30207 3.06428C6.95502 3.48486 6.56715 3.89076 6.27624 4.34557C5.41882 5.68555 5.15343 7.14779 5.41882 8.69316C5.62807 9.91088 6.17416 10.977 7.03668 11.8964C7.13365 11.9991 7.23062 12.0969 7.32249 12.2045C7.55726 12.4881 7.52663 12.85 7.25614 13.0799C6.99585 13.2999 6.59266 13.3048 6.35789 13.0456C5.99553 12.6495 5.63317 12.2534 5.32185 11.8181C4.76045 11.0357 4.37767 10.1652 4.19394 9.22622C4.08166 8.69805 4.03573 8.1601 4 7.88624Z" fill="black"/>
<path d="M20 7.94492C19.9643 9.70059 19.2191 11.4954 17.7187 12.9967C17.5094 13.2021 17.2695 13.2902 16.9837 13.1972C16.7285 13.1141 16.5856 12.9332 16.5499 12.6789C16.5142 12.4539 16.6316 12.2827 16.7694 12.1165C17.096 11.7252 17.4533 11.3536 17.7187 10.9281C18.6884 9.39738 18.918 7.74442 18.4689 6.00832C18.2086 5.01556 17.7136 4.13529 16.999 3.36749C16.9021 3.26479 16.8051 3.16698 16.7132 3.05939C16.4734 2.78064 16.4887 2.41875 16.749 2.17912C17.0093 1.94438 17.4124 1.9297 17.6625 2.19868C18.0198 2.57524 18.377 2.95669 18.6679 3.37238C19.556 4.65856 20 6.08167 20 7.94492Z" fill="black"/>
<path d="M16.9888 7.61727C16.9735 8.90345 16.4989 10.0136 15.57 10.9428C15.2944 11.2166 14.9014 11.2411 14.6258 11.0014C14.3502 10.7618 14.3247 10.3755 14.6003 10.0967C15.1107 9.57833 15.473 8.98659 15.6057 8.27747C15.8201 7.1429 15.5292 6.14036 14.7381 5.26986C14.6871 5.21118 14.6258 5.15738 14.5748 5.09381C14.34 4.81505 14.3553 4.44827 14.6207 4.21353C14.8912 3.97879 15.2893 3.98857 15.5547 4.25266C16.0089 4.69768 16.3713 5.20629 16.6163 5.78825C16.8663 6.37999 16.9939 6.9864 16.9888 7.61727Z" fill="black"/>
<path d="M7.02648 7.81288C7.05199 6.3213 7.52663 5.2014 8.46061 4.26733C8.726 4.00324 9.11898 3.98368 9.39458 4.21353C9.67018 4.44827 9.69569 4.8444 9.4303 5.11826C8.79745 5.7638 8.41978 6.51203 8.36874 7.3972C8.3126 8.33616 8.60351 9.16264 9.23126 9.88642C9.30271 9.96467 9.37927 10.038 9.44561 10.1212C9.68038 10.395 9.66507 10.7667 9.40479 11.0014C9.1445 11.2362 8.74641 11.2313 8.48612 10.9819C7.86348 10.3804 7.41946 9.67124 7.21021 8.84476C7.10303 8.43886 7.0622 8.02317 7.02648 7.81288Z" fill="black"/>
</svg>
