<svg width="24" height="24" viewBox="0 0 24 24" fill="none" xmlns="http://www.w3.org/2000/svg">
<path fill-rule="evenodd" clip-rule="evenodd" d="M16.6375 15.2932C18.965 12.304 18.7547 7.97949 16.0069 5.23163C13.0314 2.25612 8.20713 2.25612 5.23163 5.23163C2.25612 8.20713 2.25612 13.0314 5.23163 16.0069C7.97949 18.7547 12.304 18.965 15.2932 16.6375C15.3061 16.6521 15.3195 16.6664 15.3334 16.6803L19.3741 20.721C19.7461 21.093 20.3491 21.093 20.721 20.721C21.093 20.3491 21.093 19.7461 20.721 19.3741L16.6803 15.3334C16.6664 15.3195 16.6521 15.3061 16.6375 15.2932ZM14.66 6.57853C16.8916 8.81016 16.8916 12.4283 14.66 14.66C12.4283 16.8916 8.81016 16.8916 6.57853 14.66C4.34691 12.4283 4.34691 8.81016 6.57853 6.57853C8.81016 4.34691 12.4283 4.34691 14.66 6.57853Z" fill="#101010"/>
</svg>
