<svg width="24" height="24" viewBox="0 0 24 24" fill="none" xmlns="http://www.w3.org/2000/svg">
<path d="M13.5714 22C12.3214 22 11.0714 22 9.82142 22C9.80059 21.9896 9.77455 21.974 9.75371 21.9687C9.05059 21.8021 8.61309 21.3333 8.49851 20.6198C8.44642 20.3073 8.39434 19.9896 8.34226 19.6771C8.20684 18.8906 7.48809 18.4687 6.73809 18.7448C6.40996 18.8646 6.08184 18.9948 5.75371 19.1094C5.01413 19.3646 4.25892 19.099 3.86309 18.4219C3.30059 17.4792 2.75892 16.5312 2.21726 15.5833C1.82663 14.8906 1.97246 14.1094 2.57663 13.5938C2.84226 13.3646 3.12351 13.151 3.38913 12.9219C3.98288 12.4115 3.98288 11.5937 3.38913 11.0885C3.13392 10.8698 2.86309 10.6615 2.60788 10.4427C1.96205 9.89583 1.82142 9.11979 2.23809 8.39062C2.76413 7.45833 3.30059 6.53646 3.83705 5.61458C4.25892 4.89063 5.01413 4.625 5.80059 4.91146C6.12351 5.03125 6.44121 5.16146 6.76934 5.27083C7.4933 5.52083 8.20684 5.09375 8.33705 4.34375C8.39434 4.02604 8.44642 3.70312 8.49851 3.38021C8.61309 2.66667 9.04538 2.19792 9.75371 2.03125C9.77976 2.02604 9.80059 2.01042 9.82142 2C11.0714 2 12.3214 2 13.5714 2C13.5923 2.01042 13.6183 2.02604 13.6391 2.03125C14.3423 2.19792 14.7745 2.66667 14.8943 3.38021C14.9464 3.69271 14.9985 4.01042 15.0506 4.32292C15.186 5.10937 15.9048 5.53125 16.66 5.25521C16.9829 5.14062 17.3058 5.01042 17.6287 4.89583C18.3735 4.63021 19.1339 4.89583 19.535 5.57812C20.087 6.52083 20.6339 7.46875 21.1756 8.41667C21.5662 9.10937 21.4204 9.89062 20.8162 10.4062C20.5506 10.6354 20.2693 10.849 20.0037 11.0781C19.41 11.5885 19.41 12.401 20.0037 12.9115C20.2589 13.1302 20.5298 13.3385 20.785 13.5573C21.4308 14.099 21.5714 14.8802 21.1548 15.6094C20.6235 16.5365 20.0923 17.4583 19.5558 18.3802C19.1339 19.1042 18.3787 19.3698 17.5923 19.0833C17.2693 18.9635 16.9516 18.8333 16.6235 18.724C15.8995 18.474 15.186 18.901 15.0558 19.651C14.9985 19.974 14.9464 20.2917 14.8943 20.6146C14.7798 21.3281 14.3423 21.7969 13.6391 21.9635C13.6183 21.974 13.5923 21.9896 13.5714 22ZM13.337 20.4323C13.3891 20.1146 13.4464 19.8073 13.4933 19.5C13.7433 17.849 15.2277 16.7969 16.8214 17.1667C17.2433 17.2656 17.6443 17.4427 18.0506 17.599C18.1495 17.6354 18.2016 17.625 18.2537 17.5313C18.3475 17.3542 18.4516 17.1823 18.5558 17.0052C18.9777 16.2708 19.3995 15.5417 19.8266 14.8021C19.5662 14.5833 19.311 14.375 19.0558 14.1667C17.6443 13.0052 17.6443 11.0052 19.0558 9.84896C19.311 9.64062 19.5662 9.42708 19.8266 9.21354C19.2954 8.29167 18.7693 7.38021 18.2381 6.47396C18.2173 6.4375 18.1183 6.40625 18.0766 6.42187C17.8058 6.51042 17.5402 6.61458 17.2693 6.71875C16.7693 6.91146 16.2537 6.98437 15.7173 6.88021C14.5193 6.64062 13.6808 5.74479 13.4933 4.51562C13.4464 4.20312 13.3891 3.89583 13.337 3.59375C12.2277 3.59375 11.1391 3.59375 10.0506 3.59375C9.99851 3.91146 9.94121 4.21875 9.89434 4.52604C9.64434 6.17187 8.14955 7.22396 6.56101 6.84896C6.15996 6.75521 5.77455 6.58333 5.38392 6.43229C5.24851 6.38021 5.18601 6.40104 5.10788 6.53125C4.62351 7.38542 4.12871 8.23437 3.63913 9.08333C3.61309 9.125 3.59226 9.17187 3.56621 9.22396C3.81621 9.42708 4.0558 9.625 4.29538 9.82812C5.75892 11.0312 5.75892 13.0052 4.29538 14.2083C4.05059 14.4115 3.8058 14.6094 3.56101 14.8177C4.09226 15.7396 4.6183 16.6458 5.13913 17.5573C5.19121 17.6458 5.23809 17.6562 5.32663 17.6198C5.62351 17.5052 5.92038 17.3958 6.22246 17.2865C7.83705 16.6979 9.54538 17.6771 9.85788 19.3646C9.92559 19.7292 9.98288 20.0885 10.0454 20.4583C11.1495 20.4323 12.2329 20.4323 13.337 20.4323Z" fill="black"/>
<path d="M11.5662 15.8542C9.39955 15.7448 7.73809 13.9479 7.83705 11.8594C7.94121 9.70833 9.72246 8.0625 11.8318 8.15104C13.9881 8.24479 15.6443 10.0469 15.5506 12.1302C15.4516 14.2708 13.6912 15.9167 11.5662 15.8542ZM13.9881 12.0052C13.9933 10.7552 12.962 9.71875 11.7068 9.70312C10.4516 9.6875 9.39955 10.7344 9.39955 11.9896C9.39434 13.2396 10.4256 14.276 11.6808 14.2917C12.9308 14.3073 13.9829 13.2656 13.9881 12.0052Z" fill="black"/>
</svg>
