<svg width="20" height="17" viewBox="0 0 20 17" fill="none" xmlns="http://www.w3.org/2000/svg">
<path d="M20 10.5528C19.9119 11.1351 19.8532 11.7273 19.726 12.3047C19.4715 13.4743 18.9968 14.5508 18.3313 15.5491C18.0377 15.9895 17.4994 16.1119 17.0834 15.8476C16.6479 15.5736 16.5158 15.0304 16.8094 14.5655C17.3232 13.7581 17.7245 12.9017 17.9447 11.967C18.023 11.6392 18.0768 11.3064 18.1453 10.9394C17.8175 10.9394 17.5239 10.9492 17.2254 10.9394C16.5403 10.9051 16.1439 10.1466 16.5011 9.56431C16.6577 9.30985 16.8877 9.15325 17.1862 9.14346C17.4896 9.12878 17.7979 9.13857 18.0964 9.13857C18.1992 8.2039 17.2254 5.81095 16.3592 4.90075C16.1537 5.12586 15.9579 5.36075 15.7377 5.56628C15.4637 5.82074 15.1309 5.86478 14.7933 5.72287C14.4507 5.58096 14.2648 5.31181 14.2403 4.9399C14.2207 4.64629 14.3333 4.4065 14.5388 4.20587C14.7296 4.01991 14.9205 3.83396 15.126 3.63822C13.8879 2.65461 12.5129 2.08206 10.9371 1.88632C10.9371 2.18972 10.942 2.47844 10.9371 2.76716C10.9225 3.18801 10.6435 3.52077 10.2374 3.62353C9.71374 3.75077 9.17056 3.36418 9.1412 2.82589C9.12162 2.52248 9.1363 2.21419 9.1363 1.88632C7.53611 2.0576 6.13166 2.63504 4.82019 3.67247C5.07465 3.89757 5.33891 4.08842 5.54444 4.32331C5.97996 4.82735 5.7206 5.60053 5.07465 5.76691C4.7321 5.855 4.4287 5.76202 4.17913 5.50755C3.98828 5.31181 3.80233 5.11607 3.5968 4.90075C2.6083 6.1584 2.04065 7.54817 1.85959 9.13368C2.18746 9.13368 2.49086 9.119 2.79426 9.13857C3.16617 9.15815 3.42553 9.36857 3.55765 9.71112C3.68978 10.0537 3.62127 10.3669 3.38638 10.6409C3.21021 10.8415 2.98021 10.9394 2.71107 10.9394C2.43213 10.9394 2.1532 10.9394 1.86448 10.9394C1.93788 11.6147 2.07001 12.2607 2.32937 12.8675C2.57894 13.44 2.87255 13.9881 3.17106 14.5362C3.43042 15.0108 3.36191 15.5149 2.95574 15.8085C2.5349 16.1168 1.94767 16.0189 1.65895 15.5491C1.35066 15.0451 1.05215 14.5313 0.812367 13.993C0.274076 12.7598 0.00493025 11.4581 3.66962e-05 10.1075C-0.00485686 8.18433 0.479605 6.38839 1.49746 4.74905C2.81383 2.63014 4.66359 1.16208 7.05654 0.462298C10.5065 -0.545775 13.6677 0.095281 16.4522 2.38057C18.067 3.70673 19.1241 5.42436 19.6477 7.4454C19.814 8.07667 19.863 8.7373 19.9657 9.38325C19.9755 9.43218 19.9853 9.48601 20 9.53495C20 9.8775 20 10.2152 20 10.5528Z" fill="white"/>
<path d="M9.99757 16.4887C8.66163 16.4887 7.33058 16.4887 5.99464 16.4887C5.48571 16.4887 5.14316 16.244 5.02083 15.8085C4.8887 15.324 5.18721 14.8053 5.68146 14.6976C5.78422 14.6732 5.88698 14.6634 5.98975 14.6634C8.65674 14.6634 11.3237 14.6634 13.9956 14.6634C14.5926 14.6634 14.9988 15.0402 14.9988 15.5736C14.9988 16.0972 14.6024 16.4789 14.0348 16.4887C13.3839 16.4936 12.7331 16.4887 12.0822 16.4887C11.3922 16.4887 10.6925 16.4887 9.99757 16.4887Z" fill="white"/>
<path d="M7.95207 10.6898C7.95696 9.6475 8.88184 8.83517 9.90949 8.98198C10.0318 9.00155 10.115 8.97708 10.2031 8.88411C11.0056 8.07667 11.8082 7.26923 12.6156 6.46669C12.9875 6.09967 13.4524 6.04095 13.8341 6.3101C14.2501 6.59882 14.3479 7.18115 14.0445 7.58731C13.9858 7.66561 13.9173 7.73412 13.8488 7.80263C13.0609 8.59049 12.278 9.37836 11.4852 10.1613C11.402 10.2445 11.3678 10.3179 11.3873 10.4452C11.539 11.4532 10.7805 12.3536 9.72843 12.4173C8.79376 12.4809 7.94717 11.6588 7.95207 10.6898Z" fill="white"/>
</svg>
