<svg width="21" height="18" viewBox="0 0 21 18" fill="none" xmlns="http://www.w3.org/2000/svg">
<path d="M10.6668 0.0128571C12.6604 0.0128571 14.6476 0.0192857 16.6412 0.0128571C17.1604 0.0128571 17.6797 -0.0128571 18.1861 0.135C19.7374 0.604285 20.7566 2.04428 20.6604 3.67071C20.654 3.77999 20.6476 3.89571 20.6476 4.00499C20.6476 7.33499 20.6412 10.6586 20.6476 13.9885C20.6476 14.5093 20.6733 15.03 20.5194 15.5378C20.0643 17.0164 18.7309 18.0064 17.1925 18C13.045 17.9935 8.8912 17.9871 4.74377 17.9807C4.35274 17.9807 3.95531 18 3.57069 17.9421C1.89761 17.7107 0.647614 16.2064 0.666845 14.5028C0.679665 13.3457 0.686076 12.195 0.686076 11.0378C0.686076 8.69784 0.692486 6.35142 0.686076 4.01142C0.679665 3.48428 0.660435 2.95714 0.820691 2.44285C1.28223 0.977141 2.60915 0 4.1412 0C6.31428 0 8.49377 0 10.6668 0C10.6668 0.00642856 10.6668 0.0128571 10.6668 0.0128571ZM10.6604 16.4507C12.654 16.4507 14.6412 16.4507 16.6348 16.4507C16.8848 16.4507 17.1284 16.4378 17.3784 16.4121C18.3207 16.3157 18.8784 15.8143 19.0515 14.9014C19.1027 14.625 19.1156 14.3421 19.1156 14.0657C19.122 10.6907 19.122 7.3157 19.1156 3.94071C19.1156 3.68999 19.0963 3.44571 19.0643 3.20142C18.9425 2.32071 18.4489 1.79357 17.5835 1.63928C17.2886 1.58785 16.9809 1.56214 16.6797 1.56214C12.6733 1.55571 8.66685 1.55571 4.66685 1.56214C4.43608 1.56214 4.20531 1.575 3.97454 1.60071C3.02582 1.69071 2.46172 2.19214 2.29505 3.10499C2.24377 3.38142 2.23095 3.66428 2.23095 3.94071C2.22454 7.3157 2.22454 10.6907 2.23095 14.0657C2.23095 14.3164 2.25018 14.5607 2.28223 14.805C2.39761 15.6728 2.88479 16.2 3.74377 16.3607C4.05787 16.4185 4.37838 16.4378 4.6989 16.4443C6.67967 16.4507 8.66685 16.4507 10.6604 16.4507Z" fill="white"/>
<path d="M15.0386 9.78427C15.5579 9.78427 16.0451 9.78427 16.5386 9.78427C16.5963 11.1471 15.3976 12.3364 13.9874 12.33C12.5963 12.3236 11.4617 11.2178 11.4425 9.82284C11.4361 9.14141 11.404 8.45356 11.4938 7.78499C11.6604 6.47356 12.8848 5.57356 14.263 5.68285C15.5194 5.77928 16.545 6.9107 16.545 8.2157C16.045 8.2157 15.5451 8.2157 15.0386 8.2157C15.0258 8.15141 15.0066 8.0807 14.9938 8.01641C14.8784 7.50213 14.4297 7.1807 13.8976 7.21927C13.4104 7.25784 13.0002 7.66927 12.9809 8.1707C12.9617 8.72356 12.9681 9.27641 12.9809 9.82927C12.9938 10.3436 13.4104 10.7614 13.9104 10.7936C14.4489 10.8321 14.8912 10.5043 15.0002 9.98355C15.0066 9.91927 15.0194 9.85498 15.0386 9.78427Z" fill="white"/>
<path d="M9.8912 8.22213C9.38479 8.22213 8.8912 8.22213 8.38479 8.22213C8.37197 8.15142 8.35274 8.0807 8.33351 8.00356C8.21172 7.50213 7.79505 7.18713 7.27582 7.21284C6.79505 7.23856 6.37197 7.5857 6.33992 8.0807C6.30146 8.69141 6.30146 9.31498 6.33992 9.9257C6.37197 10.4207 6.80146 10.7678 7.27582 10.7871C7.78223 10.8064 8.1989 10.5043 8.32069 10.0157C8.33992 9.93855 8.35274 9.86141 8.37197 9.77784C8.86556 9.77784 9.35915 9.77784 9.88479 9.77784C9.89761 10.2214 9.78223 10.6264 9.57069 11.0121C9.02582 11.9957 7.91685 12.51 6.8271 12.285C5.72454 12.06 4.87838 11.1664 4.80787 10.0478C4.75659 9.23784 4.73736 8.40213 4.87838 7.60499C5.09633 6.35785 6.31428 5.56713 7.62197 5.68285C8.80146 5.7857 9.79505 6.81427 9.88479 8.02284C9.89761 8.0807 9.8912 8.14499 9.8912 8.22213Z" fill="white"/>
</svg>
