<svg width="20" height="20" viewBox="0 0 20 20" fill="none" xmlns="http://www.w3.org/2000/svg">
<path d="M8.44271 0C9.19792 0 9.95313 0 10.7083 0C10.7656 0.0104194 10.8229 0.0208388 10.8802 0.0260484C12.0573 0.135452 13.2396 0.213597 14.4115 0.359469C16.4375 0.609534 18.3021 2.33394 18.7135 4.33446C19.0208 5.82964 19.125 7.35087 19.1302 8.8721C19.1354 10.0755 19.0573 11.279 19.026 12.4772C19.0208 12.5762 19.0573 12.696 19.1146 12.7742C19.4687 13.2691 19.724 13.8005 19.8698 14.3892C19.9219 14.6028 19.9583 14.8216 20 15.0352C20 15.3217 20 15.6082 20 15.8948C19.9896 15.9364 19.9688 15.9781 19.9635 16.025C19.6771 17.864 18.6563 19.1144 16.9167 19.7551C16.5938 19.875 16.2396 19.9166 15.901 20C15.6146 20 15.3281 20 15.0417 20C15.026 19.9896 15.0104 19.974 14.9896 19.974C14.1458 19.8854 13.3958 19.578 12.7188 19.0727C12.6667 19.031 12.5729 19.0258 12.5 19.0258C12.1302 19.0466 11.7604 19.0831 11.3906 19.0987C9.15625 19.2029 6.93229 19.1196 4.71875 18.7914C2.71875 18.4996 0.822917 16.7908 0.442708 14.8059C0.25 13.7953 0.1875 12.7585 0.0729167 11.727C0.0364583 11.3884 0.0260417 11.0393 0 10.7007C0 9.9453 0 9.18989 0 8.43449C0.0104167 8.37197 0.0208333 8.30946 0.0260417 8.24694C0.135417 7.07997 0.208333 5.913 0.354167 4.75645C0.609375 2.70383 2.31771 0.83876 4.34896 0.437614C5.30729 0.250065 6.29167 0.187549 7.26562 0.0781453C7.66667 0.0364678 8.05208 0.0260484 8.44271 0ZM17.6042 11.4509C17.6094 11.4144 17.6146 11.3884 17.6198 11.3675C17.7188 9.21073 17.6615 7.05913 17.3177 4.92316C17.0833 3.44881 15.8854 2.14118 14.4167 1.8807C13.4271 1.70357 12.4167 1.60458 11.4167 1.54728C9.25 1.41704 7.08854 1.50039 4.9375 1.83381C3.5 2.04741 2.14062 3.26648 1.88542 4.69914C1.70833 5.70461 1.60417 6.72571 1.54167 7.7416C1.41146 9.84631 1.49479 11.9406 1.79687 14.0297C2.01042 15.4988 2.82812 16.4939 4.15104 17.1034C4.70833 17.3639 5.32292 17.3847 5.92187 17.4525C7.70833 17.6661 9.50521 17.7025 11.3021 17.614C11.349 17.614 11.3958 17.6035 11.4479 17.5983C10.5885 15.6134 10.7656 13.7796 12.3229 12.248C13.8438 10.758 15.6562 10.6017 17.6042 11.4509ZM18.5208 15.4728C18.5208 13.7953 17.151 12.4303 15.474 12.4303C13.8021 12.4303 12.4323 13.8057 12.4323 15.4832C12.4375 17.1607 13.8073 18.5257 15.4844 18.5204C17.1563 18.5204 18.5208 17.1503 18.5208 15.4728Z" fill="white"/>
<path d="M9.55208 4.99609C11.1458 4.99609 12.7396 4.99609 14.3333 4.99609C14.6927 4.99609 14.9688 5.19927 15.0625 5.53269C15.151 5.84006 15.0365 6.19432 14.7552 6.3454C14.599 6.42876 14.401 6.47564 14.2187 6.47564C11.599 6.48606 8.97396 6.48085 6.35417 6.48085C5.83854 6.48085 5.32812 6.48606 4.8125 6.48085C4.45833 6.47564 4.18229 6.27247 4.07812 5.9703C3.98437 5.67856 4.06771 5.33472 4.32292 5.16801C4.47396 5.07424 4.67187 5.00651 4.84375 5.00651C6.41667 4.99088 7.98437 4.99609 9.55208 4.99609Z" fill="white"/>
<path d="M7.60417 11.1018C6.66146 11.1018 5.71875 11.1071 4.77083 11.1018C4.45312 11.1018 4.22396 10.9403 4.10417 10.6486C3.98437 10.3621 4.03646 10.0964 4.23958 9.86715C4.38542 9.70044 4.57812 9.6223 4.79687 9.6223C6.68229 9.6223 8.57292 9.61709 10.4583 9.6223C10.8906 9.6223 11.2083 9.96093 11.2083 10.3673C11.2083 10.7841 10.875 11.1018 10.4375 11.1018C9.48958 11.1018 8.54687 11.1018 7.60417 11.1018Z" fill="white"/>
<path d="M16.2187 14.5038C16.2187 14.7122 16.224 14.9206 16.2187 15.1289C16.2083 15.5301 15.8906 15.8427 15.4948 15.8531C15.1042 15.8635 14.7552 15.5561 14.7448 15.1602C14.7292 14.7174 14.7292 14.2746 14.7448 13.8317C14.7552 13.4254 15.1042 13.118 15.5052 13.1284C15.901 13.1388 16.2083 13.4566 16.2187 13.8578C16.224 14.0714 16.2187 14.285 16.2187 14.5038Z" fill="white"/>
<path d="M15.4635 16.3115C16.099 16.3115 16.2187 16.4366 16.224 17.0513C16.2292 17.6921 16.1042 17.8171 15.4635 17.8171C15.3854 17.8171 15.3073 17.8171 15.2292 17.8067C14.8802 17.7703 14.75 17.6296 14.7344 17.2805C14.7292 17.1243 14.7292 16.968 14.7344 16.8117C14.7552 16.4835 14.8958 16.348 15.224 16.3272C15.3125 16.322 15.3958 16.3167 15.4635 16.3115Z" fill="white"/>
</svg>
