<svg width="24" height="24" viewBox="0 0 24 24" fill="none" xmlns="http://www.w3.org/2000/svg">
<path d="M10.4427 2C11.1979 2 11.9531 2 12.7083 2C12.7656 2.01042 12.8229 2.02084 12.8802 2.02605C14.0573 2.13545 15.2396 2.2136 16.4115 2.35947C18.4375 2.60953 20.3021 4.33394 20.7135 6.33446C21.0208 7.82964 21.125 9.35087 21.1302 10.8721C21.1354 12.0755 21.0573 13.279 21.026 14.4772C21.0208 14.5762 21.0573 14.696 21.1146 14.7742C21.4687 15.2691 21.724 15.8005 21.8698 16.3892C21.9219 16.6028 21.9583 16.8216 22 17.0352C22 17.3217 22 17.6082 22 17.8948C21.9896 17.9364 21.9688 17.9781 21.9635 18.025C21.6771 19.864 20.6563 21.1144 18.9167 21.7551C18.5938 21.875 18.2396 21.9166 17.901 22C17.6146 22 17.3281 22 17.0417 22C17.026 21.9896 17.0104 21.974 16.9896 21.974C16.1458 21.8854 15.3958 21.578 14.7188 21.0727C14.6667 21.031 14.5729 21.0258 14.5 21.0258C14.1302 21.0466 13.7604 21.0831 13.3906 21.0987C11.1563 21.2029 8.93229 21.1196 6.71875 20.7914C4.71875 20.4996 2.82292 18.7908 2.44271 16.8059C2.25 15.7953 2.1875 14.7585 2.07292 13.727C2.03646 13.3884 2.02604 13.0393 2 12.7007C2 11.9453 2 11.1899 2 10.4345C2.01042 10.372 2.02083 10.3095 2.02604 10.2469C2.13542 9.07997 2.20833 7.913 2.35417 6.75645C2.60937 4.70383 4.31771 2.83876 6.34896 2.43761C7.30729 2.25007 8.29167 2.18755 9.26562 2.07815C9.66667 2.03647 10.0521 2.02605 10.4427 2ZM19.6042 13.4509C19.6094 13.4144 19.6146 13.3884 19.6198 13.3675C19.7188 11.2107 19.6615 9.05913 19.3177 6.92316C19.0833 5.44881 17.8854 4.14118 16.4167 3.8807C15.4271 3.70357 14.4167 3.60458 13.4167 3.54728C11.25 3.41704 9.08854 3.50039 6.9375 3.83381C5.5 4.04741 4.14062 5.26648 3.88542 6.69914C3.70833 7.70461 3.60417 8.72571 3.54167 9.7416C3.41146 11.8463 3.49479 13.9406 3.79687 16.0297C4.01042 17.4988 4.82812 18.4939 6.15104 19.1034C6.70833 19.3639 7.32292 19.3847 7.92187 19.4525C9.70833 19.6661 11.5052 19.7025 13.3021 19.614C13.349 19.614 13.3958 19.6035 13.4479 19.5983C12.5885 17.6134 12.7656 15.7796 14.3229 14.248C15.8438 12.758 17.6562 12.6017 19.6042 13.4509ZM20.5208 17.4728C20.5208 15.7953 19.151 14.4303 17.474 14.4303C15.8021 14.4303 14.4323 15.8057 14.4323 17.4832C14.4375 19.1607 15.8073 20.5257 17.4844 20.5204C19.1563 20.5204 20.5208 19.1503 20.5208 17.4728Z" fill="black"/>
<path d="M11.5521 6.99609C13.1458 6.99609 14.7396 6.99609 16.3333 6.99609C16.6927 6.99609 16.9688 7.19927 17.0625 7.53269C17.151 7.84006 17.0365 8.19432 16.7552 8.3454C16.599 8.42876 16.401 8.47564 16.2187 8.47564C13.599 8.48606 10.974 8.48085 8.35417 8.48085C7.83854 8.48085 7.32812 8.48606 6.8125 8.48085C6.45833 8.47564 6.18229 8.27247 6.07812 7.9703C5.98437 7.67856 6.06771 7.33472 6.32292 7.16801C6.47396 7.07424 6.67187 7.00651 6.84375 7.00651C8.41667 6.99088 9.98437 6.99609 11.5521 6.99609Z" fill="black"/>
<path d="M9.60417 13.1018C8.66146 13.1018 7.71875 13.1071 6.77083 13.1018C6.45312 13.1018 6.22396 12.9403 6.10417 12.6486C5.98437 12.3621 6.03646 12.0964 6.23958 11.8672C6.38542 11.7004 6.57812 11.6223 6.79687 11.6223C8.68229 11.6223 10.5729 11.6171 12.4583 11.6223C12.8906 11.6223 13.2083 11.9609 13.2083 12.3673C13.2083 12.7841 12.875 13.1018 12.4375 13.1018C11.4896 13.1018 10.5469 13.1018 9.60417 13.1018Z" fill="black"/>
<path d="M18.2187 16.5038C18.2187 16.7122 18.224 16.9206 18.2187 17.1289C18.2083 17.5301 17.8906 17.8427 17.4948 17.8531C17.1042 17.8635 16.7552 17.5561 16.7448 17.1602C16.7292 16.7174 16.7292 16.2746 16.7448 15.8317C16.7552 15.4254 17.1042 15.118 17.5052 15.1284C17.901 15.1388 18.2083 15.4566 18.2187 15.8578C18.224 16.0714 18.2187 16.285 18.2187 16.5038Z" fill="black"/>
<path d="M17.4635 18.3115C18.099 18.3115 18.2187 18.4366 18.224 19.0513C18.2292 19.6921 18.1042 19.8171 17.4635 19.8171C17.3854 19.8171 17.3073 19.8171 17.2292 19.8067C16.8802 19.7703 16.75 19.6296 16.7344 19.2805C16.7292 19.1243 16.7292 18.968 16.7344 18.8117C16.7552 18.4835 16.8958 18.348 17.224 18.3272C17.3125 18.322 17.3958 18.3167 17.4635 18.3115Z" fill="black"/>
</svg>
