<svg width="16" height="20" viewBox="0 0 16 20" fill="none" xmlns="http://www.w3.org/2000/svg">
<path d="M6.00001 15L5.2929 14.2929L4.5858 15L5.2929 15.7071L6.00001 15ZM1.07181 12C1.34795 12.4783 1.95954 12.6422 2.43783 12.366C2.91612 12.0899 3.08 11.4783 2.80386 11L1.07181 12ZM1.0599 7.08633L0.068451 6.9558L1.0599 7.08633ZM3.05026 3.05026L3.75737 3.75737L3.05026 3.05026ZM11.5 1.93783L11 2.80386L11.5 1.93783ZM14.7615 9.81174L13.7956 9.55292V9.55292L14.7615 9.81174ZM8.00001 14C7.44773 14 7.00001 14.4477 7.00001 15C7.00001 15.5523 7.44773 16 8.00001 16V14ZM9.2929 10.2929L5.2929 14.2929L6.70712 15.7071L10.7071 11.7071L9.2929 10.2929ZM5.2929 15.7071L9.2929 19.7071L10.7071 18.2929L6.70712 14.2929L5.2929 15.7071ZM2.80386 11C2.14345 9.85616 1.87894 8.52636 2.05134 7.21685L0.068451 6.9558C-0.161415 8.70181 0.19127 10.4749 1.07181 12L2.80386 11ZM2.05134 7.21685C2.22374 5.90735 2.82342 4.69132 3.75737 3.75737L2.34316 2.34316C1.09789 3.58842 0.298317 5.20979 0.068451 6.9558L2.05134 7.21685ZM3.75737 3.75737C4.69132 2.82342 5.90735 2.22374 7.21685 2.05134L6.9558 0.068451C5.20979 0.298317 3.58842 1.09789 2.34316 2.34316L3.75737 3.75737ZM7.21685 2.05134C8.52636 1.87894 9.85616 2.14345 11 2.80386L12 1.07181C10.4749 0.19127 8.70181 -0.161415 6.9558 0.068451L7.21685 2.05134ZM11 2.80386C12.1439 3.46426 13.0378 4.48364 13.5433 5.70391L15.391 4.93854C14.7171 3.31152 13.5251 1.95234 12 1.07181L11 2.80386ZM13.5433 5.70391C14.0487 6.92417 14.1374 8.27712 13.7956 9.55292L15.7274 10.0706C16.1832 8.3695 16.065 6.56556 15.391 4.93854L13.5433 5.70391ZM13.7956 9.55292C13.4537 10.8287 12.7004 11.9561 11.6526 12.7601L12.8701 14.3468C14.2673 13.2748 15.2716 11.7716 15.7274 10.0706L13.7956 9.55292ZM11.6526 12.7601C10.6047 13.5642 9.32082 14 8.00001 14V16C9.76108 16 11.4729 15.4189 12.8701 14.3468L11.6526 12.7601Z" fill="#101010"/>
</svg>
