<svg width="18" height="18" viewBox="0 0 18 18" fill="none" xmlns="http://www.w3.org/2000/svg">
<path d="M18 1.18162C17.8668 1.42264 17.7452 1.67543 17.5888 1.89882C15.7355 4.5501 13.8706 7.19551 12.0173 9.8468C11.9536 9.94086 11.9131 10.0702 11.9131 10.1878C11.9131 11.628 11.9131 13.0683 11.9247 14.5086C11.9305 15.2669 11.6293 15.8666 11.0096 16.2898C10.3378 16.7484 9.66598 17.2069 8.99416 17.6537C8.35709 18.077 7.67948 18.1122 7.01345 17.7595C6.34163 17.4009 6.01152 16.7954 6.01152 16.0253C5.99993 14.0736 5.99993 12.1218 5.98256 10.1701C5.98256 10.0467 5.93623 9.89971 5.86673 9.79389C3.99606 7.08382 2.1196 4.37962 0.243143 1.66955C-0.000101572 1.3227 -0.0869746 0.964104 0.104146 0.564354C0.277892 0.211633 0.567469 0.0235147 0.955502 0C1.00183 0 1.04817 0 1.0945 0C6.3648 0 11.6293 0 16.8996 0C17.3513 0 17.6988 0.158724 17.9015 0.58199C17.9421 0.658413 17.9653 0.746593 18 0.828895C18 0.946468 18 1.06404 18 1.18162ZM7.98064 15.9312C8.05593 15.8842 8.10805 15.8489 8.15438 15.8195C8.70458 15.4492 9.25478 15.0729 9.81076 14.7085C9.92659 14.632 9.96134 14.5556 9.96134 14.4204C9.94976 12.7979 9.94397 11.1754 9.94397 9.55286C9.94397 9.44117 9.98451 9.30596 10.054 9.2119C11.693 6.87218 13.332 4.53247 14.971 2.19275C15.0116 2.13984 15.0463 2.08105 15.0926 2.01051C11.0212 2.01051 6.97291 2.01051 2.90725 2.01051C2.95358 2.08105 2.98254 2.13396 3.01729 2.18687C4.63313 4.51483 6.24318 6.84279 7.85323 9.17663C7.91693 9.27069 7.95747 9.4059 7.96326 9.51759C7.97485 11.5751 7.98064 13.6327 7.98643 15.6902C7.98064 15.7608 7.98064 15.8313 7.98064 15.9312Z" fill="white"/>
</svg>
