<svg width="24" height="24" viewBox="0 0 24 24" fill="none" xmlns="http://www.w3.org/2000/svg">
<path d="M12.5984 22C12.4942 22 12.39 22 12.2859 22C10.8484 21.4219 9.53588 20.6406 8.39005 19.5937C5.49942 16.9583 4.04109 13.6719 4.00463 9.76042C3.99421 8.55208 4.00463 7.33854 4.00463 6.13021C4.00463 5.58333 4.14525 5.38021 4.65567 5.17188C7.19734 4.11458 9.739 3.05729 12.2859 2C12.39 2 12.4942 2 12.5984 2C12.6713 2.03125 12.7442 2.05729 12.8119 2.08854C15.3119 3.13021 17.8171 4.16667 20.3171 5.20312C20.6973 5.35937 20.8796 5.63542 20.8796 6.04687C20.8744 7.24479 20.9005 8.44271 20.8692 9.64062C20.8484 10.4375 20.8067 11.2448 20.6765 12.026C20.2286 14.7448 19.0046 17.0781 17.0723 19.0417C15.7911 20.349 14.2911 21.3177 12.5984 22ZM19.364 8.72917C19.3484 8.72917 19.3328 8.72917 19.3171 8.72396C19.3171 8.04167 19.3119 7.35937 19.3223 6.67187C19.3223 6.52604 19.2755 6.45833 19.14 6.40104C16.9578 5.5 14.7807 4.59375 12.6036 3.69271C12.515 3.65625 12.3848 3.65625 12.2963 3.69271C10.1088 4.59375 7.9265 5.50521 5.739 6.40625C5.614 6.45833 5.56192 6.51562 5.56713 6.66146C5.57234 7.71354 5.57234 8.77083 5.57234 9.82292C5.57234 10.5937 5.64005 11.3594 5.80671 12.1094C6.64525 15.8958 8.82755 18.625 12.3171 20.3021C12.39 20.3385 12.5098 20.3333 12.5828 20.3021C14.2807 19.526 15.713 18.4063 16.864 16.9323C18.1192 15.3281 18.9109 13.5208 19.1869 11.5104C19.3067 10.5885 19.3067 9.65625 19.364 8.72917Z" fill="black"/>
<path d="M11.5775 12.4479C11.6348 12.3906 11.6921 12.3437 11.739 12.2969C12.7859 11.25 13.838 10.2031 14.8848 9.15104C15.1036 8.93229 15.3536 8.82292 15.6609 8.89583C16.2286 9.02604 16.4525 9.6875 16.0932 10.1458C16.0515 10.2031 15.9994 10.25 15.9473 10.3021C14.7078 11.5469 13.463 12.7865 12.2234 14.026C11.7911 14.4583 11.3692 14.4583 10.9369 14.026C10.2442 13.3385 9.55671 12.6458 8.86921 11.9583C8.64525 11.7344 8.55671 11.4687 8.65046 11.1562C8.74421 10.8542 8.95255 10.6771 9.25984 10.6146C9.5463 10.5573 9.78067 10.6615 9.9838 10.8646C10.463 11.3437 10.9421 11.8229 11.4213 12.3021C11.4682 12.3437 11.5203 12.3906 11.5775 12.4479Z" fill="black"/>
</svg>
