<svg width="36" height="36" viewBox="0 0 36 36" fill="none" xmlns="http://www.w3.org/2000/svg">
<path fill-rule="evenodd" clip-rule="evenodd" d="M18 32.7273C26.1336 32.7273 32.7273 26.1336 32.7273 18C32.7273 9.86635 26.1336 3.27273 18 3.27273C9.86635 3.27273 3.27273 9.86635 3.27273 18C3.27273 26.1336 9.86635 32.7273 18 32.7273ZM18 36C27.9411 36 36 27.9411 36 18C36 8.05887 27.9411 0 18 0C8.05887 0 0 8.05887 0 18C0 27.9411 8.05887 36 18 36Z" fill="white"/>
<path d="M24.5455 18L14.7273 25.0857V10.9143L24.5455 18Z" fill="white"/>
</svg>
