<svg width="20" height="20" viewBox="0 0 20 20" fill="none" xmlns="http://www.w3.org/2000/svg">
<path d="M20 2.30268C20 7.43423 20 12.5658 20 17.6973C19.8334 18.1922 19.4586 18.4892 19.0109 18.7184C18.9381 18.7549 18.86 18.7966 18.7819 18.8278C18.0427 19.1612 17.2566 19.3436 16.4654 19.4895C15.1015 19.7395 13.722 19.8645 12.3373 19.9323C11.9469 19.9531 11.5617 19.9792 11.1713 20C10.3904 20 9.60958 20 8.82873 20C8.76627 19.9896 8.7038 19.9792 8.63613 19.974C7.36595 19.8802 6.09578 19.8125 4.82561 19.6822C3.69599 19.5676 2.57158 19.3592 1.50442 18.9476C0.869339 18.7028 0.255075 18.411 0 17.6973C0 12.5658 0 7.43423 0 2.30268C0.140552 1.8807 0.442478 1.59417 0.817283 1.37536C0.921395 1.31284 1.03592 1.25554 1.14524 1.20344C1.99375 0.817921 2.88912 0.625163 3.78969 0.468872C5.08589 0.244855 6.3925 0.130242 7.70432 0.067726C8.06871 0.0520969 8.4279 0.0208388 8.7923 0C9.59917 0 10.406 0 11.2129 0C11.3431 0.0104194 11.468 0.0312581 11.5981 0.0364678C13.1546 0.0937744 14.7059 0.208388 16.2363 0.468872C17.1161 0.619953 17.9854 0.807502 18.8027 1.17739C19.3285 1.41704 19.797 1.7192 20 2.30268ZM1.25976 13.8474C1.25976 13.9515 1.25976 14.0245 1.25976 14.0922C1.25976 15.1289 1.27017 16.1605 1.25455 17.1972C1.24935 17.416 1.32743 17.5462 1.51484 17.614C1.93649 17.765 2.35294 17.937 2.78501 18.0464C4.54451 18.4892 6.34565 18.6663 8.152 18.7028C9.63561 18.734 11.1192 18.7132 12.5976 18.6663C14.1176 18.6142 15.6325 18.4371 17.1109 18.0724C17.6002 17.9526 18.0687 17.7494 18.5424 17.5775C18.6986 17.5202 18.7507 17.4056 18.7507 17.2284C18.7402 16.1761 18.7454 15.1185 18.7454 14.0662C18.7454 13.9984 18.7402 13.9307 18.735 13.8526C18.5424 13.9255 18.3706 13.9932 18.2041 14.0505C18.0271 14.1131 17.8449 14.1651 17.6627 14.212C15.7366 14.7174 13.7689 14.858 11.7959 14.9518C10.1249 15.0352 8.45393 15.0039 6.78813 14.8685C5.75742 14.7851 4.73191 14.6601 3.71161 14.509C2.88391 14.3996 2.07184 14.1912 1.25976 13.8474ZM18.7507 3.90206C18.1052 4.07919 17.4857 4.27716 16.8558 4.4074C14.8256 4.83459 12.759 4.944 10.6923 4.99088C9.06299 5.02735 7.43883 4.94921 5.81989 4.79291C4.63821 4.68872 3.46694 4.52722 2.32691 4.20943C1.97293 4.11566 1.62415 3.98541 1.25976 3.86559C1.25976 3.94374 1.25976 4.01667 1.25976 4.0844C1.25976 5.12634 1.26497 6.16827 1.25455 7.21021C1.25455 7.41339 1.32223 7.53842 1.49401 7.60094C1.92087 7.75723 2.34253 7.93436 2.7798 8.04376C4.51327 8.48137 6.28839 8.63246 8.06871 8.7106C9.77095 8.78354 11.4732 8.7627 13.1754 8.63767C14.4977 8.54389 15.8199 8.39802 17.1057 8.07502C17.595 7.94999 18.0635 7.75202 18.5372 7.58531C18.6934 7.528 18.7507 7.4186 18.7507 7.23626C18.7402 6.1839 18.7454 5.12633 18.7454 4.07398C18.7507 4.01146 18.7507 3.94374 18.7507 3.90206ZM18.7507 8.91378C18.0375 9.09612 17.3503 9.30972 16.6476 9.45038C14.6903 9.8411 12.7017 9.95051 10.7132 9.99739C9.0734 10.0339 7.43363 9.95572 5.80427 9.79943C4.633 9.69002 3.46694 9.52852 2.33212 9.21594C1.97814 9.11696 1.62936 8.99193 1.26497 8.8721C1.26497 8.95025 1.26497 9.02318 1.26497 9.09091C1.26497 10.1328 1.27017 11.1748 1.25976 12.2167C1.25976 12.4199 1.32223 12.5449 1.49922 12.6074C1.92608 12.7637 2.34774 12.9409 2.78501 13.0503C4.54451 13.4931 6.34565 13.6702 8.152 13.7119C9.63561 13.7432 11.1192 13.7223 12.5976 13.6754C14.1124 13.6233 15.6169 13.4514 17.0953 13.0867C17.5846 12.9669 18.0531 12.7742 18.532 12.6022C18.6986 12.5449 18.7663 12.4199 18.7611 12.2271C18.7507 11.1852 18.7559 10.1433 18.7559 9.10133C18.7507 9.02839 18.7507 8.95546 18.7507 8.91378ZM1.32743 2.50065C1.42113 2.55275 1.4784 2.59964 1.54086 2.62047C1.90005 2.75072 2.25403 2.90701 2.62363 3.00078C4.38834 3.46444 6.19469 3.62073 8.01145 3.70409C10.1874 3.79786 12.3581 3.75619 14.5185 3.51133C15.6221 3.3863 16.7257 3.21959 17.7876 2.88617C18.0843 2.79239 18.3706 2.65694 18.6569 2.54233C18.6517 2.52149 18.6465 2.49544 18.6413 2.4746C18.558 2.42772 18.48 2.37041 18.3915 2.33915C18.0583 2.21933 17.7251 2.08388 17.3816 1.9901C15.5804 1.51602 13.7324 1.36494 11.8792 1.28679C10 1.20865 8.12077 1.23991 6.24154 1.40662C5.02343 1.51602 3.80531 1.67752 2.61322 1.99531C2.18116 2.10992 1.74909 2.23496 1.32743 2.50065Z" fill="white"/>
<path d="M5.00781 16.6762C5.00781 17.1347 4.633 17.5046 4.17491 17.5046C3.72202 17.5046 3.34201 17.1347 3.3368 16.6762C3.3316 16.2178 3.72202 15.827 4.18011 15.8322C4.63821 15.8427 5.00781 16.2178 5.00781 16.6762Z" fill="white"/>
<path d="M4.1697 7.50195C3.71681 7.50195 3.34201 7.12165 3.34201 6.6684C3.34201 6.21516 3.71681 5.83485 4.1697 5.83485C4.6278 5.82964 5.01301 6.21516 5.00781 6.67882C5.0026 7.13207 4.6278 7.50195 4.1697 7.50195Z" fill="white"/>
<path d="M5.00781 11.6697C5.00781 12.1282 4.63821 12.5033 4.18011 12.5033C3.71681 12.5085 3.3316 12.1229 3.34201 11.6593C3.34721 11.206 3.73243 10.8309 4.18011 10.8309C4.633 10.8362 5.00781 11.2165 5.00781 11.6697Z" fill="white"/>
</svg>
